<?xml version="1.0" encoding="UTF-8"?>
<svg xmlns="http://www.w3.org/2000/svg" xmlns:xlink="http://www.w3.org/1999/xlink" width="720pt" height="360pt" viewBox="0 0 720 360">
<defs>
<g>
<g id="glyph-0-0">
<path d="M 2.84375 0 L 2.84375 -1.507812 L 0.113281 -1.507812 L 0.113281 -2.21875 L 2.988281 -6.300781 L 3.617188 -6.300781 L 3.617188 -2.21875 L 4.46875 -2.21875 L 4.46875 -1.507812 L 3.617188 -1.507812 L 3.617188 0 L 2.84375 0 M 2.84375 -2.21875 L 2.84375 -5.058594 L 0.871094 -2.21875 Z M 2.84375 -2.21875 "/>
</g>
<g id="glyph-0-1">
<path d="M 0.367188 -3.105469 C 0.367188 -3.851562 0.441406 -4.449219 0.59375 -4.90625 C 0.75 -5.359375 0.976562 -5.710938 1.277344 -5.957031 C 1.582031 -6.203125 1.960938 -6.324219 2.417969 -6.324219 C 2.757812 -6.324219 3.054688 -6.257812 3.308594 -6.121094 C 3.5625 -5.984375 3.773438 -5.789062 3.941406 -5.53125 C 4.105469 -5.277344 4.238281 -4.964844 4.332031 -4.59375 C 4.425781 -4.226562 4.472656 -3.730469 4.472656 -3.105469 C 4.472656 -2.367188 4.398438 -1.769531 4.246094 -1.316406 C 4.09375 -0.863281 3.867188 -0.511719 3.5625 -0.265625 C 3.261719 -0.015625 2.878906 0.109375 2.417969 0.109375 C 1.8125 0.109375 1.335938 -0.109375 0.988281 -0.546875 C 0.574219 -1.070312 0.367188 -1.921875 0.367188 -3.105469 M 1.160156 -3.105469 C 1.160156 -2.074219 1.28125 -1.382812 1.523438 -1.042969 C 1.765625 -0.699219 2.0625 -0.527344 2.417969 -0.527344 C 2.773438 -0.527344 3.074219 -0.699219 3.316406 -1.042969 C 3.558594 -1.386719 3.679688 -2.074219 3.679688 -3.105469 C 3.679688 -4.144531 3.558594 -4.832031 3.316406 -5.171875 C 3.074219 -5.515625 2.773438 -5.683594 2.410156 -5.683594 C 2.054688 -5.683594 1.773438 -5.535156 1.558594 -5.234375 C 1.292969 -4.851562 1.160156 -4.140625 1.160156 -3.105469 Z M 1.160156 -3.105469 "/>
</g>
<g id="glyph-0-2">
<path d="M 0.367188 -1.648438 L 1.175781 -1.71875 C 1.238281 -1.324219 1.378906 -1.027344 1.597656 -0.828125 C 1.816406 -0.628906 2.078125 -0.527344 2.390625 -0.527344 C 2.761719 -0.527344 3.078125 -0.667969 3.335938 -0.949219 C 3.59375 -1.230469 3.722656 -1.601562 3.722656 -2.066406 C 3.722656 -2.507812 3.597656 -2.855469 3.347656 -3.109375 C 3.101562 -3.367188 2.777344 -3.492188 2.375 -3.492188 C 2.125 -3.492188 1.902344 -3.4375 1.703125 -3.324219 C 1.5 -3.210938 1.34375 -3.0625 1.230469 -2.882812 L 0.503906 -2.976562 L 1.113281 -6.214844 L 4.246094 -6.214844 L 4.246094 -5.472656 L 1.730469 -5.472656 L 1.390625 -3.78125 C 1.769531 -4.042969 2.167969 -4.175781 2.582031 -4.175781 C 3.132812 -4.175781 3.597656 -3.984375 3.976562 -3.605469 C 4.351562 -3.222656 4.542969 -2.734375 4.542969 -2.136719 C 4.542969 -1.566406 4.375 -1.074219 4.042969 -0.65625 C 3.640625 -0.148438 3.089844 0.109375 2.390625 0.109375 C 1.816406 0.109375 1.347656 -0.0546875 0.984375 -0.375 C 0.625 -0.695312 0.417969 -1.121094 0.367188 -1.648438 Z M 0.367188 -1.648438 "/>
</g>
<g id="glyph-0-3">
<path d="M 4.378906 -4.757812 L 3.609375 -4.695312 C 3.539062 -5 3.441406 -5.21875 3.316406 -5.359375 C 3.109375 -5.578125 2.851562 -5.6875 2.542969 -5.6875 C 2.296875 -5.6875 2.082031 -5.621094 1.894531 -5.484375 C 1.652344 -5.304688 1.460938 -5.046875 1.320312 -4.703125 C 1.179688 -4.363281 1.105469 -3.878906 1.101562 -3.25 C 1.285156 -3.53125 1.515625 -3.742188 1.785156 -3.878906 C 2.050781 -4.015625 2.335938 -4.085938 2.628906 -4.085938 C 3.144531 -4.085938 3.585938 -3.898438 3.945312 -3.515625 C 4.308594 -3.136719 4.492188 -2.648438 4.492188 -2.046875 C 4.492188 -1.648438 4.40625 -1.28125 4.234375 -0.941406 C 4.0625 -0.605469 3.828125 -0.34375 3.53125 -0.164062 C 3.234375 0.015625 2.894531 0.109375 2.519531 0.109375 C 1.875 0.109375 1.347656 -0.128906 0.941406 -0.605469 C 0.535156 -1.078125 0.332031 -1.859375 0.332031 -2.949219 C 0.332031 -4.164062 0.554688 -5.050781 1.003906 -5.601562 C 1.398438 -6.085938 1.925781 -6.324219 2.589844 -6.324219 C 3.085938 -6.324219 3.492188 -6.1875 3.808594 -5.910156 C 4.125 -5.628906 4.316406 -5.246094 4.378906 -4.757812 M 1.21875 -2.039062 C 1.21875 -1.773438 1.277344 -1.519531 1.390625 -1.277344 C 1.503906 -1.03125 1.660156 -0.847656 1.863281 -0.71875 C 2.066406 -0.59375 2.28125 -0.527344 2.503906 -0.527344 C 2.832031 -0.527344 3.113281 -0.660156 3.347656 -0.925781 C 3.582031 -1.1875 3.699219 -1.546875 3.699219 -2 C 3.699219 -2.433594 3.582031 -2.777344 3.351562 -3.027344 C 3.121094 -3.277344 2.828125 -3.402344 2.476562 -3.402344 C 2.125 -3.402344 1.828125 -3.277344 1.585938 -3.027344 C 1.34375 -2.777344 1.21875 -2.449219 1.21875 -2.039062 Z M 1.21875 -2.039062 "/>
</g>
<g id="glyph-0-4">
<path d="M 0.417969 -5.472656 L 0.417969 -6.21875 L 4.496094 -6.21875 L 4.496094 -5.617188 C 4.09375 -5.1875 3.695312 -4.621094 3.300781 -3.914062 C 2.910156 -3.207031 2.605469 -2.480469 2.390625 -1.730469 C 2.234375 -1.203125 2.136719 -0.628906 2.09375 0 L 1.296875 0 C 1.304688 -0.496094 1.402344 -1.09375 1.589844 -1.796875 C 1.777344 -2.496094 2.042969 -3.175781 2.390625 -3.828125 C 2.738281 -4.476562 3.109375 -5.027344 3.503906 -5.472656 Z M 0.417969 -5.472656 "/>
</g>
<g id="glyph-0-5">
<path d="M 1.554688 -3.417969 C 1.234375 -3.535156 0.996094 -3.699219 0.84375 -3.917969 C 0.6875 -4.136719 0.609375 -4.398438 0.609375 -4.699219 C 0.609375 -5.160156 0.773438 -5.542969 1.105469 -5.855469 C 1.433594 -6.167969 1.871094 -6.324219 2.417969 -6.324219 C 2.96875 -6.324219 3.410156 -6.164062 3.746094 -5.847656 C 4.082031 -5.527344 4.25 -5.136719 4.25 -4.679688 C 4.25 -4.386719 4.171875 -4.132812 4.019531 -3.917969 C 3.867188 -3.699219 3.632812 -3.535156 3.320312 -3.417969 C 3.707031 -3.289062 4.003906 -3.085938 4.203125 -2.804688 C 4.40625 -2.523438 4.507812 -2.191406 4.507812 -1.800781 C 4.507812 -1.261719 4.316406 -0.808594 3.9375 -0.441406 C 3.554688 -0.0742188 3.054688 0.109375 2.433594 0.109375 C 1.808594 0.109375 1.308594 -0.078125 0.929688 -0.445312 C 0.546875 -0.8125 0.355469 -1.273438 0.355469 -1.820312 C 0.355469 -2.230469 0.460938 -2.574219 0.667969 -2.851562 C 0.875 -3.128906 1.171875 -3.316406 1.554688 -3.417969 M 1.402344 -4.726562 C 1.402344 -4.429688 1.496094 -4.183594 1.6875 -3.996094 C 1.878906 -3.808594 2.128906 -3.710938 2.4375 -3.710938 C 2.734375 -3.710938 2.976562 -3.804688 3.167969 -3.992188 C 3.359375 -4.179688 3.453125 -4.410156 3.453125 -4.683594 C 3.453125 -4.96875 3.355469 -5.207031 3.160156 -5.398438 C 2.964844 -5.59375 2.71875 -5.6875 2.429688 -5.6875 C 2.132812 -5.6875 1.886719 -5.59375 1.691406 -5.40625 C 1.5 -5.214844 1.402344 -4.988281 1.402344 -4.726562 M 1.152344 -1.816406 C 1.152344 -1.597656 1.203125 -1.382812 1.308594 -1.175781 C 1.414062 -0.972656 1.570312 -0.8125 1.773438 -0.699219 C 1.980469 -0.585938 2.203125 -0.527344 2.441406 -0.527344 C 2.808594 -0.527344 3.117188 -0.648438 3.355469 -0.886719 C 3.597656 -1.121094 3.71875 -1.425781 3.71875 -1.792969 C 3.71875 -2.164062 3.59375 -2.472656 3.34375 -2.714844 C 3.097656 -2.960938 2.789062 -3.082031 2.414062 -3.082031 C 2.050781 -3.082031 1.75 -2.960938 1.511719 -2.71875 C 1.269531 -2.480469 1.152344 -2.179688 1.152344 -1.816406 Z M 1.152344 -1.816406 "/>
</g>
<g id="glyph-0-6">
<path d="M 0.480469 -1.457031 L 1.226562 -1.527344 C 1.289062 -1.175781 1.40625 -0.921875 1.585938 -0.765625 C 1.761719 -0.605469 1.992188 -0.527344 2.269531 -0.527344 C 2.507812 -0.527344 2.714844 -0.582031 2.894531 -0.691406 C 3.074219 -0.800781 3.21875 -0.945312 3.335938 -1.128906 C 3.449219 -1.308594 3.542969 -1.554688 3.621094 -1.863281 C 3.699219 -2.175781 3.738281 -2.488281 3.738281 -2.808594 C 3.738281 -2.84375 3.738281 -2.894531 3.734375 -2.964844 C 3.578125 -2.71875 3.367188 -2.519531 3.101562 -2.367188 C 2.832031 -2.210938 2.542969 -2.136719 2.230469 -2.136719 C 1.707031 -2.136719 1.265625 -2.324219 0.90625 -2.703125 C 0.546875 -3.082031 0.367188 -3.578125 0.367188 -4.199219 C 0.367188 -4.835938 0.554688 -5.351562 0.929688 -5.742188 C 1.308594 -6.128906 1.777344 -6.324219 2.347656 -6.324219 C 2.753906 -6.324219 3.128906 -6.214844 3.46875 -5.996094 C 3.808594 -5.773438 4.066406 -5.460938 4.242188 -5.050781 C 4.417969 -4.644531 4.507812 -4.050781 4.507812 -3.277344 C 4.507812 -2.472656 4.421875 -1.832031 4.246094 -1.355469 C 4.070312 -0.878906 3.8125 -0.515625 3.464844 -0.265625 C 3.121094 -0.015625 2.714844 0.109375 2.25 0.109375 C 1.757812 0.109375 1.355469 -0.03125 1.042969 -0.304688 C 0.730469 -0.578125 0.542969 -0.960938 0.480469 -1.457031 M 3.648438 -4.238281 C 3.648438 -4.679688 3.53125 -5.03125 3.292969 -5.292969 C 3.058594 -5.554688 2.773438 -5.683594 2.441406 -5.683594 C 2.097656 -5.683594 1.796875 -5.542969 1.542969 -5.265625 C 1.289062 -4.984375 1.160156 -4.617188 1.160156 -4.171875 C 1.160156 -3.769531 1.28125 -3.445312 1.523438 -3.195312 C 1.765625 -2.945312 2.0625 -2.820312 2.417969 -2.820312 C 2.777344 -2.820312 3.070312 -2.945312 3.300781 -3.195312 C 3.53125 -3.445312 3.648438 -3.792969 3.648438 -4.238281 Z M 3.648438 -4.238281 "/>
</g>
<g id="glyph-0-7">
<path d="M 3.277344 0 L 2.503906 0 L 2.503906 -4.929688 C 2.320312 -4.75 2.074219 -4.574219 1.773438 -4.394531 C 1.46875 -4.21875 1.199219 -4.085938 0.957031 -3.996094 L 0.957031 -4.742188 C 1.390625 -4.945312 1.769531 -5.195312 2.09375 -5.484375 C 2.417969 -5.773438 2.644531 -6.054688 2.78125 -6.324219 L 3.277344 -6.324219 Z M 3.277344 0 "/>
</g>
<g id="glyph-0-8">
<path d="M 4.429688 -0.742188 L 4.429688 0 L 0.265625 0 C 0.261719 -0.1875 0.289062 -0.367188 0.355469 -0.539062 C 0.460938 -0.820312 0.632812 -1.101562 0.867188 -1.375 C 1.097656 -1.648438 1.4375 -1.96875 1.878906 -2.328125 C 2.5625 -2.890625 3.023438 -3.335938 3.265625 -3.664062 C 3.507812 -3.992188 3.625 -4.300781 3.625 -4.59375 C 3.625 -4.898438 3.515625 -5.160156 3.296875 -5.367188 C 3.078125 -5.578125 2.792969 -5.683594 2.441406 -5.683594 C 2.066406 -5.683594 1.769531 -5.574219 1.546875 -5.351562 C 1.324219 -5.125 1.210938 -4.816406 1.207031 -4.421875 L 0.414062 -4.503906 C 0.46875 -5.097656 0.671875 -5.546875 1.027344 -5.859375 C 1.382812 -6.167969 1.859375 -6.324219 2.457031 -6.324219 C 3.0625 -6.324219 3.539062 -6.15625 3.894531 -5.824219 C 4.246094 -5.488281 4.421875 -5.070312 4.421875 -4.578125 C 4.421875 -4.324219 4.371094 -4.078125 4.265625 -3.832031 C 4.164062 -3.589844 3.992188 -3.332031 3.753906 -3.0625 C 3.515625 -2.792969 3.117188 -2.425781 2.5625 -1.957031 C 2.097656 -1.566406 1.800781 -1.300781 1.667969 -1.164062 C 1.535156 -1.023438 1.425781 -0.882812 1.339844 -0.742188 Z M 4.429688 -0.742188 "/>
</g>
<g id="glyph-1-0">
<path d="M -3.835938 -0.53125 C -5.140625 -0.53125 -6.164062 -0.882812 -6.90625 -1.585938 C -7.644531 -2.285156 -8.015625 -3.191406 -8.015625 -4.300781 C -8.015625 -5.027344 -7.839844 -5.683594 -7.492188 -6.269531 C -7.144531 -6.851562 -6.660156 -7.296875 -6.039062 -7.601562 C -5.417969 -7.910156 -4.714844 -8.0625 -3.925781 -8.0625 C -3.128906 -8.0625 -2.414062 -7.902344 -1.78125 -7.578125 C -1.152344 -7.257812 -0.675781 -6.800781 -0.351562 -6.210938 C -0.0273438 -5.617188 0.132812 -4.980469 0.132812 -4.296875 C 0.132812 -3.554688 -0.0429688 -2.894531 -0.402344 -2.308594 C -0.761719 -1.726562 -1.25 -1.285156 -1.867188 -0.984375 C -2.488281 -0.683594 -3.144531 -0.53125 -3.835938 -0.53125 M -3.820312 -1.605469 C -2.871094 -1.605469 -2.121094 -1.859375 -1.578125 -2.371094 C -1.03125 -2.882812 -0.757812 -3.523438 -0.757812 -4.292969 C -0.757812 -5.074219 -1.03125 -5.722656 -1.585938 -6.226562 C -2.136719 -6.734375 -2.917969 -6.988281 -3.929688 -6.988281 C -4.574219 -6.988281 -5.132812 -6.878906 -5.609375 -6.664062 C -6.089844 -6.445312 -6.457031 -6.128906 -6.722656 -5.710938 C -6.984375 -5.296875 -7.117188 -4.828125 -7.117188 -4.308594 C -7.117188 -3.570312 -6.863281 -2.933594 -6.355469 -2.402344 C -5.851562 -1.871094 -5.003906 -1.605469 -3.820312 -1.605469 Z M -3.820312 -1.605469 "/>
</g>
<g id="glyph-2-0">
<path d="M -1.453125 -0.324219 L -1.546875 -1 C -1.160156 -1.078125 -0.886719 -1.210938 -0.714844 -1.398438 C -0.546875 -1.582031 -0.460938 -1.8125 -0.460938 -2.078125 C -0.460938 -2.398438 -0.574219 -2.667969 -0.792969 -2.886719 C -1.015625 -3.105469 -1.285156 -3.214844 -1.613281 -3.214844 C -1.921875 -3.214844 -2.179688 -3.113281 -2.382812 -2.910156 C -2.582031 -2.707031 -2.683594 -2.449219 -2.683594 -2.136719 C -2.683594 -2.007812 -2.660156 -1.847656 -2.609375 -1.65625 L -3.203125 -1.734375 C -3.199219 -1.777344 -3.195312 -1.816406 -3.195312 -1.84375 C -3.195312 -2.128906 -3.269531 -2.390625 -3.421875 -2.621094 C -3.570312 -2.851562 -3.804688 -2.964844 -4.117188 -2.964844 C -4.363281 -2.964844 -4.570312 -2.882812 -4.734375 -2.714844 C -4.894531 -2.546875 -4.976562 -2.328125 -4.976562 -2.0625 C -4.976562 -1.800781 -4.894531 -1.582031 -4.730469 -1.40625 C -4.5625 -1.230469 -4.316406 -1.117188 -3.984375 -1.066406 L -4.105469 -0.390625 C -4.558594 -0.472656 -4.910156 -0.660156 -5.160156 -0.953125 C -5.410156 -1.25 -5.535156 -1.613281 -5.535156 -2.050781 C -5.535156 -2.351562 -5.46875 -2.625 -5.339844 -2.878906 C -5.210938 -3.132812 -5.035156 -3.328125 -4.8125 -3.460938 C -4.589844 -3.59375 -4.351562 -3.660156 -4.101562 -3.660156 C -3.863281 -3.660156 -3.648438 -3.597656 -3.453125 -3.46875 C -3.257812 -3.34375 -3.101562 -3.152344 -2.984375 -2.902344 C -2.910156 -3.226562 -2.753906 -3.480469 -2.515625 -3.660156 C -2.28125 -3.84375 -1.984375 -3.933594 -1.628906 -3.933594 C -1.148438 -3.933594 -0.738281 -3.757812 -0.402344 -3.40625 C -0.0703125 -3.054688 0.0976562 -2.613281 0.0976562 -2.074219 C 0.0976562 -1.589844 -0.046875 -1.191406 -0.335938 -0.871094 C -0.621094 -0.550781 -0.996094 -0.367188 -1.453125 -0.324219 Z M -1.453125 -0.324219 "/>
</g>
</g>
<clipPath id="clip-0">
<path clip-rule="nonzero" d="M 55.148438 31.175781 L 698.082031 31.175781 L 698.082031 316.945312 L 55.148438 316.945312 Z M 55.148438 31.175781 "/>
</clipPath>
<clipPath id="clip-1">
<path clip-rule="nonzero" d="M 55.148438 290 L 698.082031 290 L 698.082031 292 L 55.148438 292 Z M 55.148438 290 "/>
</clipPath>
<clipPath id="clip-2">
<path clip-rule="nonzero" d="M 55.148438 242 L 698.082031 242 L 698.082031 244 L 55.148438 244 Z M 55.148438 242 "/>
</clipPath>
<clipPath id="clip-3">
<path clip-rule="nonzero" d="M 55.148438 194 L 698.082031 194 L 698.082031 195 L 55.148438 195 Z M 55.148438 194 "/>
</clipPath>
<clipPath id="clip-4">
<path clip-rule="nonzero" d="M 55.148438 146 L 698.082031 146 L 698.082031 147 L 55.148438 147 Z M 55.148438 146 "/>
</clipPath>
<clipPath id="clip-5">
<path clip-rule="nonzero" d="M 55.148438 98 L 698.082031 98 L 698.082031 99 L 55.148438 99 Z M 55.148438 98 "/>
</clipPath>
<clipPath id="clip-6">
<path clip-rule="nonzero" d="M 55.148438 50 L 698.082031 50 L 698.082031 51 L 55.148438 51 Z M 55.148438 50 "/>
</clipPath>
<clipPath id="clip-7">
<path clip-rule="nonzero" d="M 56 31.175781 L 58 31.175781 L 58 316.945312 L 56 316.945312 Z M 56 31.175781 "/>
</clipPath>
<clipPath id="clip-8">
<path clip-rule="nonzero" d="M 190 31.175781 L 191 31.175781 L 191 316.945312 L 190 316.945312 Z M 190 31.175781 "/>
</clipPath>
<clipPath id="clip-9">
<path clip-rule="nonzero" d="M 324 31.175781 L 325 31.175781 L 325 316.945312 L 324 316.945312 Z M 324 31.175781 "/>
</clipPath>
<clipPath id="clip-10">
<path clip-rule="nonzero" d="M 457 31.175781 L 459 31.175781 L 459 316.945312 L 457 316.945312 Z M 457 31.175781 "/>
</clipPath>
<clipPath id="clip-11">
<path clip-rule="nonzero" d="M 591 31.175781 L 592 31.175781 L 592 316.945312 L 591 316.945312 Z M 591 31.175781 "/>
</clipPath>
<clipPath id="clip-12">
<path clip-rule="nonzero" d="M 55.148438 314 L 698.082031 314 L 698.082031 316 L 55.148438 316 Z M 55.148438 314 "/>
</clipPath>
<clipPath id="clip-13">
<path clip-rule="nonzero" d="M 55.148438 266 L 698.082031 266 L 698.082031 268 L 55.148438 268 Z M 55.148438 266 "/>
</clipPath>
<clipPath id="clip-14">
<path clip-rule="nonzero" d="M 55.148438 218 L 698.082031 218 L 698.082031 220 L 55.148438 220 Z M 55.148438 218 "/>
</clipPath>
<clipPath id="clip-15">
<path clip-rule="nonzero" d="M 55.148438 170 L 698.082031 170 L 698.082031 172 L 55.148438 172 Z M 55.148438 170 "/>
</clipPath>
<clipPath id="clip-16">
<path clip-rule="nonzero" d="M 55.148438 122 L 698.082031 122 L 698.082031 124 L 55.148438 124 Z M 55.148438 122 "/>
</clipPath>
<clipPath id="clip-17">
<path clip-rule="nonzero" d="M 55.148438 73 L 698.082031 73 L 698.082031 75 L 55.148438 75 Z M 55.148438 73 "/>
</clipPath>
<clipPath id="clip-18">
<path clip-rule="nonzero" d="M 123 31.175781 L 125 31.175781 L 125 316.945312 L 123 316.945312 Z M 123 31.175781 "/>
</clipPath>
<clipPath id="clip-19">
<path clip-rule="nonzero" d="M 256 31.175781 L 259 31.175781 L 259 316.945312 L 256 316.945312 Z M 256 31.175781 "/>
</clipPath>
<clipPath id="clip-20">
<path clip-rule="nonzero" d="M 390 31.175781 L 392 31.175781 L 392 316.945312 L 390 316.945312 Z M 390 31.175781 "/>
</clipPath>
<clipPath id="clip-21">
<path clip-rule="nonzero" d="M 524 31.175781 L 526 31.175781 L 526 316.945312 L 524 316.945312 Z M 524 31.175781 "/>
</clipPath>
<clipPath id="clip-22">
<path clip-rule="nonzero" d="M 657 31.175781 L 659 31.175781 L 659 316.945312 L 657 316.945312 Z M 657 31.175781 "/>
</clipPath>
<clipPath id="clip-23">
<path clip-rule="nonzero" d="M 55.148438 31.175781 L 698.082031 31.175781 L 698.082031 316.945312 L 55.148438 316.945312 Z M 55.148438 31.175781 "/>
</clipPath>
</defs>
<rect x="-72" y="-36" width="864" height="432" fill="rgb(100%, 100%, 100%)" fill-opacity="1"/>
<g clip-path="url(#clip-0)">
<path fill-rule="nonzero" fill="rgb(100%, 100%, 100%)" fill-opacity="1" d="M 55.148438 316.945312 L 698.082031 316.945312 L 698.082031 31.175781 L 55.148438 31.175781 Z M 55.148438 316.945312 "/>
</g>
<g clip-path="url(#clip-1)">
<path fill="none" stroke-width="0.533489" stroke-linecap="butt" stroke-linejoin="round" stroke="rgb(92.156863%, 92.156863%, 92.156863%)" stroke-opacity="1" stroke-miterlimit="10" d="M 55.148438 290.9375 L 698.082031 290.9375 "/>
</g>
<g clip-path="url(#clip-2)">
<path fill="none" stroke-width="0.533489" stroke-linecap="butt" stroke-linejoin="round" stroke="rgb(92.156863%, 92.156863%, 92.156863%)" stroke-opacity="1" stroke-miterlimit="10" d="M 55.148438 242.828125 L 698.082031 242.828125 "/>
</g>
<g clip-path="url(#clip-3)">
<path fill="none" stroke-width="0.533489" stroke-linecap="butt" stroke-linejoin="round" stroke="rgb(92.156863%, 92.156863%, 92.156863%)" stroke-opacity="1" stroke-miterlimit="10" d="M 55.148438 194.71875 L 698.082031 194.71875 "/>
</g>
<g clip-path="url(#clip-4)">
<path fill="none" stroke-width="0.533489" stroke-linecap="butt" stroke-linejoin="round" stroke="rgb(92.156863%, 92.156863%, 92.156863%)" stroke-opacity="1" stroke-miterlimit="10" d="M 55.148438 146.609375 L 698.082031 146.609375 "/>
</g>
<g clip-path="url(#clip-5)">
<path fill="none" stroke-width="0.533489" stroke-linecap="butt" stroke-linejoin="round" stroke="rgb(92.156863%, 92.156863%, 92.156863%)" stroke-opacity="1" stroke-miterlimit="10" d="M 55.148438 98.5 L 698.082031 98.5 "/>
</g>
<g clip-path="url(#clip-6)">
<path fill="none" stroke-width="0.533489" stroke-linecap="butt" stroke-linejoin="round" stroke="rgb(92.156863%, 92.156863%, 92.156863%)" stroke-opacity="1" stroke-miterlimit="10" d="M 55.148438 50.390625 L 698.082031 50.390625 "/>
</g>
<g clip-path="url(#clip-7)">
<path fill="none" stroke-width="0.533489" stroke-linecap="butt" stroke-linejoin="round" stroke="rgb(92.156863%, 92.156863%, 92.156863%)" stroke-opacity="1" stroke-miterlimit="10" d="M 57.144531 316.945312 L 57.144531 31.175781 "/>
</g>
<g clip-path="url(#clip-8)">
<path fill="none" stroke-width="0.533489" stroke-linecap="butt" stroke-linejoin="round" stroke="rgb(92.156863%, 92.156863%, 92.156863%)" stroke-opacity="1" stroke-miterlimit="10" d="M 190.726562 316.945312 L 190.726562 31.175781 "/>
</g>
<g clip-path="url(#clip-9)">
<path fill="none" stroke-width="0.533489" stroke-linecap="butt" stroke-linejoin="round" stroke="rgb(92.156863%, 92.156863%, 92.156863%)" stroke-opacity="1" stroke-miterlimit="10" d="M 324.308594 316.945312 L 324.308594 31.175781 "/>
</g>
<g clip-path="url(#clip-10)">
<path fill="none" stroke-width="0.533489" stroke-linecap="butt" stroke-linejoin="round" stroke="rgb(92.156863%, 92.156863%, 92.156863%)" stroke-opacity="1" stroke-miterlimit="10" d="M 457.929688 316.945312 L 457.929688 31.175781 "/>
</g>
<g clip-path="url(#clip-11)">
<path fill="none" stroke-width="0.533489" stroke-linecap="butt" stroke-linejoin="round" stroke="rgb(92.156863%, 92.156863%, 92.156863%)" stroke-opacity="1" stroke-miterlimit="10" d="M 591.546875 316.945312 L 591.546875 31.175781 "/>
</g>
<g clip-path="url(#clip-12)">
<path fill="none" stroke-width="1.066978" stroke-linecap="butt" stroke-linejoin="round" stroke="rgb(92.156863%, 92.156863%, 92.156863%)" stroke-opacity="1" stroke-miterlimit="10" d="M 55.148438 314.992188 L 698.082031 314.992188 "/>
</g>
<g clip-path="url(#clip-13)">
<path fill="none" stroke-width="1.066978" stroke-linecap="butt" stroke-linejoin="round" stroke="rgb(92.156863%, 92.156863%, 92.156863%)" stroke-opacity="1" stroke-miterlimit="10" d="M 55.148438 266.882812 L 698.082031 266.882812 "/>
</g>
<g clip-path="url(#clip-14)">
<path fill="none" stroke-width="1.066978" stroke-linecap="butt" stroke-linejoin="round" stroke="rgb(92.156863%, 92.156863%, 92.156863%)" stroke-opacity="1" stroke-miterlimit="10" d="M 55.148438 218.773438 L 698.082031 218.773438 "/>
</g>
<g clip-path="url(#clip-15)">
<path fill="none" stroke-width="1.066978" stroke-linecap="butt" stroke-linejoin="round" stroke="rgb(92.156863%, 92.156863%, 92.156863%)" stroke-opacity="1" stroke-miterlimit="10" d="M 55.148438 170.664062 L 698.082031 170.664062 "/>
</g>
<g clip-path="url(#clip-16)">
<path fill="none" stroke-width="1.066978" stroke-linecap="butt" stroke-linejoin="round" stroke="rgb(92.156863%, 92.156863%, 92.156863%)" stroke-opacity="1" stroke-miterlimit="10" d="M 55.148438 122.554688 L 698.082031 122.554688 "/>
</g>
<g clip-path="url(#clip-17)">
<path fill="none" stroke-width="1.066978" stroke-linecap="butt" stroke-linejoin="round" stroke="rgb(92.156863%, 92.156863%, 92.156863%)" stroke-opacity="1" stroke-miterlimit="10" d="M 55.148438 74.445312 L 698.082031 74.445312 "/>
</g>
<g clip-path="url(#clip-18)">
<path fill="none" stroke-width="1.066978" stroke-linecap="butt" stroke-linejoin="round" stroke="rgb(92.156863%, 92.156863%, 92.156863%)" stroke-opacity="1" stroke-miterlimit="10" d="M 123.933594 316.945312 L 123.933594 31.175781 "/>
</g>
<g clip-path="url(#clip-19)">
<path fill="none" stroke-width="1.066978" stroke-linecap="butt" stroke-linejoin="round" stroke="rgb(92.156863%, 92.156863%, 92.156863%)" stroke-opacity="1" stroke-miterlimit="10" d="M 257.519531 316.945312 L 257.519531 31.175781 "/>
</g>
<g clip-path="url(#clip-20)">
<path fill="none" stroke-width="1.066978" stroke-linecap="butt" stroke-linejoin="round" stroke="rgb(92.156863%, 92.156863%, 92.156863%)" stroke-opacity="1" stroke-miterlimit="10" d="M 391.101562 316.945312 L 391.101562 31.175781 "/>
</g>
<g clip-path="url(#clip-21)">
<path fill="none" stroke-width="1.066978" stroke-linecap="butt" stroke-linejoin="round" stroke="rgb(92.156863%, 92.156863%, 92.156863%)" stroke-opacity="1" stroke-miterlimit="10" d="M 524.757812 316.945312 L 524.757812 31.175781 "/>
</g>
<g clip-path="url(#clip-22)">
<path fill="none" stroke-width="1.066978" stroke-linecap="butt" stroke-linejoin="round" stroke="rgb(92.156863%, 92.156863%, 92.156863%)" stroke-opacity="1" stroke-miterlimit="10" d="M 658.339844 316.945312 L 658.339844 31.175781 "/>
</g>
<path fill="none" stroke-width="1.066978" stroke-linecap="butt" stroke-linejoin="round" stroke="rgb(89.411765%, 10.196078%, 10.980392%)" stroke-opacity="1" stroke-miterlimit="10" d="M 70.457031 237.300781 L 72.726562 200.15625 L 74.847656 129.597656 L 77.113281 158.988281 L 79.308594 106.945312 L 81.578125 156.414062 L 83.773438 223.152344 L 86.039062 220.175781 L 88.308594 181.089844 L 90.503906 207.835938 L 92.769531 223.300781 L 94.964844 180.910156 L 97.234375 170.140625 L 99.5 131.632812 L 101.550781 120.84375 L 103.816406 90.246094 L 106.011719 89.828125 L 108.28125 185.828125 L 110.472656 224.9375 L 112.742188 214.441406 L 115.011719 187.425781 L 117.203125 167.082031 L 119.472656 260.421875 L 121.667969 286.460938 L 123.933594 176.996094 L 126.203125 148.933594 L 128.25 136.546875 L 130.519531 107.441406 L 132.714844 111.421875 L 134.980469 177.945312 L 137.175781 194.945312 L 139.445312 241.707031 L 141.710938 200.746094 L 143.90625 186.707031 L 146.175781 224.261719 L 148.371094 206.257812 L 150.636719 221.386719 L 152.90625 216.363281 L 154.953125 201.21875 L 157.222656 78.949219 L 159.414062 128.996094 L 161.683594 143.683594 L 163.878906 160.269531 L 166.144531 168.507812 L 168.414062 146.449219 L 170.609375 196.3125 L 172.875 163.851562 L 175.070312 226.574219 L 177.339844 246.117188 L 179.605469 144.460938 L 181.726562 103.078125 L 183.996094 103.339844 L 186.191406 74.914062 L 188.457031 156.144531 L 190.652344 229.050781 L 192.921875 204.5625 L 195.1875 204.890625 L 197.382812 189.171875 L 199.652344 150.859375 L 201.847656 209.074219 L 204.113281 144.003906 L 206.382812 178.851562 L 208.429688 121.089844 L 210.699219 105.9375 L 212.894531 114.382812 L 215.160156 209.769531 L 217.355469 229.984375 L 219.625 223.46875 L 221.890625 210.976562 L 224.085938 279.492188 L 226.355469 226.703125 L 228.546875 149.175781 L 230.816406 150.980469 L 233.082031 201.421875 L 235.132812 77.878906 L 237.398438 96.589844 L 239.59375 110.917969 L 241.863281 171.523438 L 244.058594 211.125 L 246.324219 210.140625 L 248.59375 182.789062 L 250.789062 187.527344 L 253.054688 201.25 L 255.25 170.988281 L 257.519531 156.472656 L 259.785156 153.109375 L 261.835938 112.601562 L 264.101562 102.671875 L 266.296875 123.488281 L 268.566406 184.542969 L 270.757812 189.429688 L 273.027344 164.671875 L 275.296875 185.226562 L 277.488281 193.121094 L 279.757812 225.675781 L 281.953125 283.777344 L 284.21875 227.417969 L 286.488281 164.785156 L 288.609375 179.269531 L 290.878906 87.429688 L 293.070312 110.570312 L 295.339844 126.179688 L 297.535156 202.398438 L 299.800781 199.128906 L 302.070312 177.832031 L 304.265625 139.621094 L 306.53125 159.222656 L 308.726562 242.410156 L 310.996094 254.625 L 313.261719 104.855469 L 315.3125 114.523438 L 317.578125 147.902344 L 319.773438 114.5625 L 322.042969 147.769531 L 324.238281 243.71875 L 326.503906 230.632812 L 328.773438 215.617188 L 330.964844 220.160156 L 333.234375 293.128906 L 335.429688 189.160156 L 337.695312 191.257812 L 339.964844 109.910156 L 342.011719 95.164062 L 344.28125 77.535156 L 346.476562 114.785156 L 348.742188 176.226562 L 350.9375 205.929688 L 353.207031 198.636719 L 355.472656 173.429688 L 357.667969 155.007812 L 359.9375 144.953125 L 362.132812 138.210938 L 364.398438 129.230469 L 366.667969 93.519531 L 368.714844 61.347656 L 370.984375 68.433594 L 373.179688 96.078125 L 375.445312 166 L 377.640625 221.457031 L 379.90625 220.792969 L 382.175781 189.882812 L 384.371094 215.601562 L 386.636719 150.050781 L 388.832031 139.390625 L 391.101562 159.386719 L 393.367188 104.847656 L 395.492188 113.335938 L 397.757812 118.59375 L 399.953125 109.308594 L 402.222656 176.878906 L 404.414062 248.003906 L 406.683594 228.203125 L 408.949219 202.152344 L 411.144531 154.441406 L 413.414062 160.882812 L 415.609375 200.761719 L 417.875 223.566406 L 420.144531 176.378906 L 422.191406 163.898438 L 424.460938 74.929688 L 426.65625 98.726562 L 428.921875 192.242188 L 431.117188 242.589844 L 433.386719 231.988281 L 435.652344 225.976562 L 437.847656 176.847656 L 440.117188 160.320312 L 442.308594 235.691406 L 444.578125 147.878906 L 446.847656 87.074219 L 448.894531 109.210938 L 451.164062 88.160156 L 453.355469 88.203125 L 455.625 129.265625 L 457.820312 207.917969 L 460.085938 227.566406 L 462.355469 181.515625 L 464.550781 190.402344 L 466.816406 136.105469 L 469.011719 251.5625 L 471.28125 159.519531 L 473.546875 177.953125 L 475.597656 93.398438 L 477.863281 61.667969 L 480.058594 60.140625 L 482.328125 123.964844 L 484.519531 177.203125 L 486.789062 211.171875 L 489.058594 174.03125 L 491.25 198.546875 L 493.519531 137.082031 L 495.714844 183.804688 L 497.980469 127.367188 L 500.25 137.707031 L 502.371094 78.921875 L 504.640625 73.644531 L 506.832031 108.070312 L 509.101562 183.378906 L 511.296875 201.390625 L 513.5625 190.394531 L 515.832031 196.539062 L 518.027344 183.582031 L 520.292969 146.8125 L 522.488281 152.183594 L 524.757812 127.175781 L 527.023438 134.242188 L 529.074219 125.144531 L 531.339844 86.957031 L 533.535156 98.734375 L 535.804688 187.398438 L 538 240.125 L 540.265625 236.492188 L 542.535156 181.839844 L 544.730469 170.277344 L 546.996094 175.234375 L 549.191406 178.566406 L 551.460938 195.378906 L 553.726562 146.402344 L 555.773438 110.917969 L 558.042969 54.988281 L 560.238281 111.652344 L 562.503906 128.292969 L 564.699219 192.699219 L 566.96875 227.300781 L 569.234375 175.746094 L 571.429688 172.113281 L 573.699219 121.109375 L 575.894531 163.15625 L 578.160156 124.695312 L 580.429688 155.351562 L 582.476562 82.359375 L 584.746094 88.710938 L 586.941406 107.140625 L 589.207031 156.597656 L 591.402344 211.3125 L 593.671875 218.867188 L 595.9375 208.578125 L 598.132812 179.125 L 600.402344 146.234375 L 602.59375 160.347656 L 604.863281 124.09375 L 607.132812 157.132812 L 609.253906 73.089844 L 611.519531 66.253906 L 613.714844 69.953125 L 615.984375 150.152344 L 618.175781 200.046875 L 620.445312 192.863281 L 622.714844 181.945312 L 624.90625 156.878906 L 627.175781 169.113281 L 629.371094 182.125 L 631.636719 157.214844 L 633.90625 125.277344 L 635.953125 67.882812 L 638.222656 70.800781 L 640.417969 107.714844 L 642.683594 157.582031 L 644.878906 214.351562 L 647.148438 225.175781 L 649.414062 190.5 L 651.609375 188.371094 L 653.878906 139.285156 L 656.074219 166.214844 L 658.339844 181.761719 L 660.609375 156.261719 L 662.65625 123.191406 L 664.925781 85.59375 L 667.117188 142.886719 L 669.386719 195.921875 L 671.582031 232.070312 L 673.847656 214.996094 L 676.117188 163.625 L 678.3125 175.476562 L 680.578125 171.46875 L 682.773438 194.113281 "/>
<g clip-path="url(#clip-23)">
<path fill="none" stroke-width="1.066978" stroke-linecap="round" stroke-linejoin="round" stroke="rgb(20%, 20%, 20%)" stroke-opacity="1" stroke-miterlimit="10" d="M 55.148438 316.945312 L 698.082031 316.945312 L 698.082031 31.175781 L 55.148438 31.175781 Z M 55.148438 316.945312 "/>
</g>
<g fill="rgb(30.196078%, 30.196078%, 30.196078%)" fill-opacity="1">
<use xlink:href="#glyph-0-0" x="40.429688" y="318.644531"/>
<use xlink:href="#glyph-0-1" x="45.323828" y="318.644531"/>
</g>
<g fill="rgb(30.196078%, 30.196078%, 30.196078%)" fill-opacity="1">
<use xlink:href="#glyph-0-2" x="40.429688" y="270.535156"/>
<use xlink:href="#glyph-0-1" x="45.323828" y="270.535156"/>
</g>
<g fill="rgb(30.196078%, 30.196078%, 30.196078%)" fill-opacity="1">
<use xlink:href="#glyph-0-3" x="40.429688" y="222.425781"/>
<use xlink:href="#glyph-0-1" x="45.323828" y="222.425781"/>
</g>
<g fill="rgb(30.196078%, 30.196078%, 30.196078%)" fill-opacity="1">
<use xlink:href="#glyph-0-4" x="40.429688" y="174.316406"/>
<use xlink:href="#glyph-0-1" x="45.323828" y="174.316406"/>
</g>
<g fill="rgb(30.196078%, 30.196078%, 30.196078%)" fill-opacity="1">
<use xlink:href="#glyph-0-5" x="40.429688" y="126.207031"/>
<use xlink:href="#glyph-0-1" x="45.323828" y="126.207031"/>
</g>
<g fill="rgb(30.196078%, 30.196078%, 30.196078%)" fill-opacity="1">
<use xlink:href="#glyph-0-6" x="40.429688" y="78.097656"/>
<use xlink:href="#glyph-0-1" x="45.323828" y="78.097656"/>
</g>
<path fill="none" stroke-width="1.066978" stroke-linecap="butt" stroke-linejoin="round" stroke="rgb(20%, 20%, 20%)" stroke-opacity="1" stroke-miterlimit="10" d="M 52.410156 314.992188 L 55.148438 314.992188 "/>
<path fill="none" stroke-width="1.066978" stroke-linecap="butt" stroke-linejoin="round" stroke="rgb(20%, 20%, 20%)" stroke-opacity="1" stroke-miterlimit="10" d="M 52.410156 266.882812 L 55.148438 266.882812 "/>
<path fill="none" stroke-width="1.066978" stroke-linecap="butt" stroke-linejoin="round" stroke="rgb(20%, 20%, 20%)" stroke-opacity="1" stroke-miterlimit="10" d="M 52.410156 218.773438 L 55.148438 218.773438 "/>
<path fill="none" stroke-width="1.066978" stroke-linecap="butt" stroke-linejoin="round" stroke="rgb(20%, 20%, 20%)" stroke-opacity="1" stroke-miterlimit="10" d="M 52.410156 170.664062 L 55.148438 170.664062 "/>
<path fill="none" stroke-width="1.066978" stroke-linecap="butt" stroke-linejoin="round" stroke="rgb(20%, 20%, 20%)" stroke-opacity="1" stroke-miterlimit="10" d="M 52.410156 122.554688 L 55.148438 122.554688 "/>
<path fill="none" stroke-width="1.066978" stroke-linecap="butt" stroke-linejoin="round" stroke="rgb(20%, 20%, 20%)" stroke-opacity="1" stroke-miterlimit="10" d="M 52.410156 74.445312 L 55.148438 74.445312 "/>
<path fill="none" stroke-width="1.066978" stroke-linecap="butt" stroke-linejoin="round" stroke="rgb(20%, 20%, 20%)" stroke-opacity="1" stroke-miterlimit="10" d="M 123.933594 319.683594 L 123.933594 316.945312 "/>
<path fill="none" stroke-width="1.066978" stroke-linecap="butt" stroke-linejoin="round" stroke="rgb(20%, 20%, 20%)" stroke-opacity="1" stroke-miterlimit="10" d="M 257.519531 319.683594 L 257.519531 316.945312 "/>
<path fill="none" stroke-width="1.066978" stroke-linecap="butt" stroke-linejoin="round" stroke="rgb(20%, 20%, 20%)" stroke-opacity="1" stroke-miterlimit="10" d="M 391.101562 319.683594 L 391.101562 316.945312 "/>
<path fill="none" stroke-width="1.066978" stroke-linecap="butt" stroke-linejoin="round" stroke="rgb(20%, 20%, 20%)" stroke-opacity="1" stroke-miterlimit="10" d="M 524.757812 319.683594 L 524.757812 316.945312 "/>
<path fill="none" stroke-width="1.066978" stroke-linecap="butt" stroke-linejoin="round" stroke="rgb(20%, 20%, 20%)" stroke-opacity="1" stroke-miterlimit="10" d="M 658.339844 319.683594 L 658.339844 316.945312 "/>
<g fill="rgb(30.196078%, 30.196078%, 30.196078%)" fill-opacity="1">
<use xlink:href="#glyph-0-7" x="114.144531" y="329.175781"/>
<use xlink:href="#glyph-0-6" x="119.038672" y="329.175781"/>
<use xlink:href="#glyph-0-6" x="123.932813" y="329.175781"/>
<use xlink:href="#glyph-0-1" x="128.826953" y="329.175781"/>
</g>
<g fill="rgb(30.196078%, 30.196078%, 30.196078%)" fill-opacity="1">
<use xlink:href="#glyph-0-7" x="247.730469" y="329.175781"/>
<use xlink:href="#glyph-0-6" x="252.624609" y="329.175781"/>
<use xlink:href="#glyph-0-6" x="257.51875" y="329.175781"/>
<use xlink:href="#glyph-0-2" x="262.412891" y="329.175781"/>
</g>
<g fill="rgb(30.196078%, 30.196078%, 30.196078%)" fill-opacity="1">
<use xlink:href="#glyph-0-8" x="381.3125" y="329.175781"/>
<use xlink:href="#glyph-0-1" x="386.206641" y="329.175781"/>
<use xlink:href="#glyph-0-1" x="391.100781" y="329.175781"/>
<use xlink:href="#glyph-0-1" x="395.994922" y="329.175781"/>
</g>
<g fill="rgb(30.196078%, 30.196078%, 30.196078%)" fill-opacity="1">
<use xlink:href="#glyph-0-8" x="514.96875" y="329.175781"/>
<use xlink:href="#glyph-0-1" x="519.862891" y="329.175781"/>
<use xlink:href="#glyph-0-1" x="524.757031" y="329.175781"/>
<use xlink:href="#glyph-0-2" x="529.651172" y="329.175781"/>
</g>
<g fill="rgb(30.196078%, 30.196078%, 30.196078%)" fill-opacity="1">
<use xlink:href="#glyph-0-8" x="648.550781" y="329.175781"/>
<use xlink:href="#glyph-0-1" x="653.444922" y="329.175781"/>
<use xlink:href="#glyph-0-7" x="658.339062" y="329.175781"/>
<use xlink:href="#glyph-0-1" x="663.233203" y="329.175781"/>
</g>
<g fill="rgb(0%, 0%, 0%)" fill-opacity="1">
<use xlink:href="#glyph-1-0" x="30.929688" y="180.480469"/>
</g>
<g fill="rgb(0%, 0%, 0%)" fill-opacity="1">
<use xlink:href="#glyph-2-0" x="33.277344" y="171.921875"/>
</g>
</svg>
