<?xml version="1.0" encoding="UTF-8"?>
<svg xmlns="http://www.w3.org/2000/svg" xmlns:xlink="http://www.w3.org/1999/xlink" width="432pt" height="288pt" viewBox="0 0 432 288">
<defs>
<g>
<g id="glyph-0-0">
<path d="M 0.367188 -3.105469 C 0.367188 -3.851562 0.441406 -4.449219 0.59375 -4.90625 C 0.75 -5.359375 0.976562 -5.710938 1.277344 -5.957031 C 1.582031 -6.203125 1.960938 -6.324219 2.417969 -6.324219 C 2.757812 -6.324219 3.054688 -6.257812 3.308594 -6.121094 C 3.5625 -5.984375 3.773438 -5.789062 3.941406 -5.53125 C 4.105469 -5.277344 4.238281 -4.964844 4.332031 -4.59375 C 4.425781 -4.226562 4.472656 -3.730469 4.472656 -3.105469 C 4.472656 -2.367188 4.398438 -1.769531 4.246094 -1.316406 C 4.09375 -0.863281 3.867188 -0.511719 3.5625 -0.265625 C 3.261719 -0.015625 2.878906 0.109375 2.417969 0.109375 C 1.8125 0.109375 1.335938 -0.109375 0.988281 -0.546875 C 0.574219 -1.070312 0.367188 -1.921875 0.367188 -3.105469 M 1.160156 -3.105469 C 1.160156 -2.074219 1.28125 -1.382812 1.523438 -1.042969 C 1.765625 -0.699219 2.0625 -0.527344 2.417969 -0.527344 C 2.773438 -0.527344 3.074219 -0.699219 3.316406 -1.042969 C 3.558594 -1.386719 3.679688 -2.074219 3.679688 -3.105469 C 3.679688 -4.144531 3.558594 -4.832031 3.316406 -5.171875 C 3.074219 -5.515625 2.773438 -5.683594 2.410156 -5.683594 C 2.054688 -5.683594 1.773438 -5.535156 1.558594 -5.234375 C 1.292969 -4.851562 1.160156 -4.140625 1.160156 -3.105469 Z M 1.160156 -3.105469 "/>
</g>
<g id="glyph-0-1">
<path d="M 0.371094 -1.664062 L 1.144531 -1.765625 C 1.230469 -1.328125 1.382812 -1.011719 1.597656 -0.820312 C 1.808594 -0.625 2.070312 -0.527344 2.375 -0.527344 C 2.738281 -0.527344 3.046875 -0.65625 3.296875 -0.90625 C 3.546875 -1.160156 3.671875 -1.472656 3.675781 -1.84375 C 3.671875 -2.199219 3.558594 -2.492188 3.324219 -2.722656 C 3.09375 -2.953125 2.796875 -3.066406 2.441406 -3.066406 C 2.292969 -3.066406 2.113281 -3.039062 1.894531 -2.980469 L 1.980469 -3.660156 C 2.03125 -3.65625 2.074219 -3.652344 2.105469 -3.652344 C 2.433594 -3.652344 2.730469 -3.738281 2.996094 -3.910156 C 3.257812 -4.082031 3.390625 -4.347656 3.390625 -4.703125 C 3.390625 -4.988281 3.292969 -5.222656 3.101562 -5.410156 C 2.910156 -5.597656 2.664062 -5.6875 2.359375 -5.6875 C 2.058594 -5.6875 1.808594 -5.59375 1.605469 -5.40625 C 1.40625 -5.214844 1.277344 -4.933594 1.21875 -4.554688 L 0.445312 -4.691406 C 0.542969 -5.210938 0.757812 -5.613281 1.089844 -5.898438 C 1.425781 -6.183594 1.84375 -6.324219 2.34375 -6.324219 C 2.6875 -6.324219 3.003906 -6.25 3.292969 -6.105469 C 3.582031 -5.957031 3.800781 -5.753906 3.957031 -5.5 C 4.109375 -5.246094 4.183594 -4.972656 4.183594 -4.6875 C 4.183594 -4.414062 4.113281 -4.167969 3.964844 -3.945312 C 3.820312 -3.722656 3.605469 -3.542969 3.316406 -3.410156 C 3.691406 -3.324219 3.980469 -3.148438 4.183594 -2.875 C 4.390625 -2.605469 4.496094 -2.265625 4.496094 -1.859375 C 4.496094 -1.3125 4.292969 -0.84375 3.894531 -0.460938 C 3.492188 -0.078125 2.984375 0.113281 2.371094 0.113281 C 1.820312 0.113281 1.359375 -0.0546875 0.996094 -0.382812 C 0.628906 -0.710938 0.421875 -1.140625 0.371094 -1.664062 Z M 0.371094 -1.664062 "/>
</g>
<g id="glyph-0-2">
<path d="M 4.378906 -4.757812 L 3.609375 -4.695312 C 3.539062 -5 3.441406 -5.21875 3.316406 -5.359375 C 3.109375 -5.578125 2.851562 -5.6875 2.542969 -5.6875 C 2.296875 -5.6875 2.082031 -5.621094 1.894531 -5.484375 C 1.652344 -5.304688 1.460938 -5.046875 1.320312 -4.703125 C 1.179688 -4.363281 1.105469 -3.878906 1.101562 -3.25 C 1.285156 -3.53125 1.515625 -3.742188 1.785156 -3.878906 C 2.050781 -4.015625 2.335938 -4.085938 2.628906 -4.085938 C 3.144531 -4.085938 3.585938 -3.898438 3.945312 -3.515625 C 4.308594 -3.136719 4.492188 -2.648438 4.492188 -2.046875 C 4.492188 -1.648438 4.40625 -1.28125 4.234375 -0.941406 C 4.0625 -0.605469 3.828125 -0.34375 3.53125 -0.164062 C 3.234375 0.015625 2.894531 0.109375 2.519531 0.109375 C 1.875 0.109375 1.347656 -0.128906 0.941406 -0.605469 C 0.535156 -1.078125 0.332031 -1.859375 0.332031 -2.949219 C 0.332031 -4.164062 0.554688 -5.050781 1.003906 -5.601562 C 1.398438 -6.085938 1.925781 -6.324219 2.589844 -6.324219 C 3.085938 -6.324219 3.492188 -6.1875 3.808594 -5.910156 C 4.125 -5.628906 4.316406 -5.246094 4.378906 -4.757812 M 1.21875 -2.039062 C 1.21875 -1.773438 1.277344 -1.519531 1.390625 -1.277344 C 1.503906 -1.03125 1.660156 -0.847656 1.863281 -0.71875 C 2.066406 -0.59375 2.28125 -0.527344 2.503906 -0.527344 C 2.832031 -0.527344 3.113281 -0.660156 3.347656 -0.925781 C 3.582031 -1.1875 3.699219 -1.546875 3.699219 -2 C 3.699219 -2.433594 3.582031 -2.777344 3.351562 -3.027344 C 3.121094 -3.277344 2.828125 -3.402344 2.476562 -3.402344 C 2.125 -3.402344 1.828125 -3.277344 1.585938 -3.027344 C 1.34375 -2.777344 1.21875 -2.449219 1.21875 -2.039062 Z M 1.21875 -2.039062 "/>
</g>
<g id="glyph-0-3">
<path d="M 0.480469 -1.457031 L 1.226562 -1.527344 C 1.289062 -1.175781 1.40625 -0.921875 1.585938 -0.765625 C 1.761719 -0.605469 1.992188 -0.527344 2.269531 -0.527344 C 2.507812 -0.527344 2.714844 -0.582031 2.894531 -0.691406 C 3.074219 -0.800781 3.21875 -0.945312 3.335938 -1.128906 C 3.449219 -1.308594 3.542969 -1.554688 3.621094 -1.863281 C 3.699219 -2.175781 3.738281 -2.488281 3.738281 -2.808594 C 3.738281 -2.84375 3.738281 -2.894531 3.734375 -2.964844 C 3.578125 -2.71875 3.367188 -2.519531 3.101562 -2.367188 C 2.832031 -2.210938 2.542969 -2.136719 2.230469 -2.136719 C 1.707031 -2.136719 1.265625 -2.324219 0.90625 -2.703125 C 0.546875 -3.082031 0.367188 -3.578125 0.367188 -4.199219 C 0.367188 -4.835938 0.554688 -5.351562 0.929688 -5.742188 C 1.308594 -6.128906 1.777344 -6.324219 2.347656 -6.324219 C 2.753906 -6.324219 3.128906 -6.214844 3.46875 -5.996094 C 3.808594 -5.773438 4.066406 -5.460938 4.242188 -5.050781 C 4.417969 -4.644531 4.507812 -4.050781 4.507812 -3.277344 C 4.507812 -2.472656 4.421875 -1.832031 4.246094 -1.355469 C 4.070312 -0.878906 3.8125 -0.515625 3.464844 -0.265625 C 3.121094 -0.015625 2.714844 0.109375 2.25 0.109375 C 1.757812 0.109375 1.355469 -0.03125 1.042969 -0.304688 C 0.730469 -0.578125 0.542969 -0.960938 0.480469 -1.457031 M 3.648438 -4.238281 C 3.648438 -4.679688 3.53125 -5.03125 3.292969 -5.292969 C 3.058594 -5.554688 2.773438 -5.683594 2.441406 -5.683594 C 2.097656 -5.683594 1.796875 -5.542969 1.542969 -5.265625 C 1.289062 -4.984375 1.160156 -4.617188 1.160156 -4.171875 C 1.160156 -3.769531 1.28125 -3.445312 1.523438 -3.195312 C 1.765625 -2.945312 2.0625 -2.820312 2.417969 -2.820312 C 2.777344 -2.820312 3.070312 -2.945312 3.300781 -3.195312 C 3.53125 -3.445312 3.648438 -3.792969 3.648438 -4.238281 Z M 3.648438 -4.238281 "/>
</g>
<g id="glyph-0-4">
<path d="M 0.253906 -1.789062 L 1.003906 -1.890625 C 1.027344 -1.410156 1.117188 -1.078125 1.277344 -0.902344 C 1.4375 -0.726562 1.660156 -0.636719 1.941406 -0.636719 C 2.152344 -0.636719 2.332031 -0.683594 2.484375 -0.78125 C 2.636719 -0.875 2.738281 -1.007812 2.796875 -1.171875 C 2.855469 -1.335938 2.882812 -1.597656 2.882812 -1.960938 L 2.882812 -6.300781 L 3.71875 -6.300781 L 3.71875 -2.007812 C 3.71875 -1.480469 3.652344 -1.070312 3.527344 -0.78125 C 3.398438 -0.492188 3.195312 -0.273438 2.917969 -0.121094 C 2.644531 0.03125 2.320312 0.109375 1.945312 0.109375 C 1.394531 0.109375 0.96875 -0.0507812 0.675781 -0.371094 C 0.382812 -0.6875 0.242188 -1.160156 0.253906 -1.789062 Z M 0.253906 -1.789062 "/>
</g>
<g id="glyph-0-5">
<path d="M 3.558594 -0.5625 C 3.269531 -0.320312 2.996094 -0.148438 2.730469 -0.046875 C 2.464844 0.0546875 2.179688 0.101562 1.878906 0.101562 C 1.375 0.101562 0.992188 -0.0195312 0.722656 -0.265625 C 0.453125 -0.507812 0.316406 -0.820312 0.316406 -1.203125 C 0.316406 -1.425781 0.367188 -1.628906 0.46875 -1.816406 C 0.570312 -2 0.707031 -2.148438 0.871094 -2.261719 C 1.035156 -2.371094 1.21875 -2.457031 1.425781 -2.515625 C 1.578125 -2.554688 1.808594 -2.59375 2.113281 -2.628906 C 2.738281 -2.703125 3.199219 -2.792969 3.492188 -2.894531 C 3.496094 -3.003906 3.496094 -3.070312 3.496094 -3.097656 C 3.496094 -3.414062 3.425781 -3.636719 3.277344 -3.765625 C 3.082031 -3.9375 2.789062 -4.027344 2.398438 -4.027344 C 2.035156 -4.027344 1.765625 -3.960938 1.59375 -3.835938 C 1.417969 -3.707031 1.289062 -3.480469 1.207031 -3.160156 L 0.453125 -3.261719 C 0.519531 -3.585938 0.632812 -3.847656 0.789062 -4.046875 C 0.949219 -4.246094 1.175781 -4.398438 1.472656 -4.503906 C 1.773438 -4.613281 2.117188 -4.667969 2.507812 -4.667969 C 2.898438 -4.667969 3.214844 -4.621094 3.460938 -4.527344 C 3.703125 -4.4375 3.882812 -4.320312 3.996094 -4.183594 C 4.109375 -4.042969 4.191406 -3.867188 4.238281 -3.65625 C 4.261719 -3.523438 4.273438 -3.289062 4.273438 -2.945312 L 4.273438 -1.914062 C 4.273438 -1.191406 4.292969 -0.738281 4.324219 -0.546875 C 4.359375 -0.355469 4.421875 -0.175781 4.519531 0 L 3.710938 0 C 3.632812 -0.160156 3.582031 -0.347656 3.558594 -0.5625 M 3.492188 -2.289062 C 3.210938 -2.175781 2.792969 -2.078125 2.230469 -2 C 1.910156 -1.953125 1.6875 -1.902344 1.554688 -1.84375 C 1.421875 -1.785156 1.320312 -1.703125 1.25 -1.59375 C 1.179688 -1.480469 1.144531 -1.359375 1.144531 -1.226562 C 1.144531 -1.019531 1.222656 -0.847656 1.378906 -0.710938 C 1.535156 -0.570312 1.761719 -0.503906 2.0625 -0.503906 C 2.359375 -0.503906 2.625 -0.566406 2.859375 -0.699219 C 3.089844 -0.828125 3.261719 -1.007812 3.367188 -1.234375 C 3.453125 -1.40625 3.492188 -1.664062 3.492188 -2.007812 Z M 3.492188 -2.289062 "/>
</g>
<g id="glyph-0-6">
<path d="M 0.578125 0 L 0.578125 -4.5625 L 1.277344 -4.5625 L 1.277344 -3.914062 C 1.609375 -4.414062 2.09375 -4.667969 2.726562 -4.667969 C 3.003906 -4.667969 3.257812 -4.617188 3.488281 -4.519531 C 3.71875 -4.417969 3.890625 -4.289062 4.003906 -4.128906 C 4.121094 -3.96875 4.199219 -3.777344 4.246094 -3.558594 C 4.273438 -3.414062 4.289062 -3.164062 4.289062 -2.804688 L 4.289062 0 L 3.515625 0 L 3.515625 -2.777344 C 3.515625 -3.089844 3.484375 -3.328125 3.425781 -3.484375 C 3.363281 -3.640625 3.257812 -3.761719 3.105469 -3.855469 C 2.953125 -3.949219 2.773438 -3.996094 2.566406 -3.996094 C 2.234375 -3.996094 1.953125 -3.890625 1.710938 -3.683594 C 1.472656 -3.472656 1.351562 -3.078125 1.351562 -2.492188 L 1.351562 0 Z M 0.578125 0 "/>
</g>
<g id="glyph-0-7">
</g>
<g id="glyph-0-8">
<path d="M 0.367188 -1.648438 L 1.175781 -1.71875 C 1.238281 -1.324219 1.378906 -1.027344 1.597656 -0.828125 C 1.816406 -0.628906 2.078125 -0.527344 2.390625 -0.527344 C 2.761719 -0.527344 3.078125 -0.667969 3.335938 -0.949219 C 3.59375 -1.230469 3.722656 -1.601562 3.722656 -2.066406 C 3.722656 -2.507812 3.597656 -2.855469 3.347656 -3.109375 C 3.101562 -3.367188 2.777344 -3.492188 2.375 -3.492188 C 2.125 -3.492188 1.902344 -3.4375 1.703125 -3.324219 C 1.5 -3.210938 1.34375 -3.0625 1.230469 -2.882812 L 0.503906 -2.976562 L 1.113281 -6.214844 L 4.246094 -6.214844 L 4.246094 -5.472656 L 1.730469 -5.472656 L 1.390625 -3.78125 C 1.769531 -4.042969 2.167969 -4.175781 2.582031 -4.175781 C 3.132812 -4.175781 3.597656 -3.984375 3.976562 -3.605469 C 4.351562 -3.222656 4.542969 -2.734375 4.542969 -2.136719 C 4.542969 -1.566406 4.375 -1.074219 4.042969 -0.65625 C 3.640625 -0.148438 3.089844 0.109375 2.390625 0.109375 C 1.816406 0.109375 1.347656 -0.0546875 0.984375 -0.375 C 0.625 -0.695312 0.417969 -1.121094 0.367188 -1.648438 Z M 0.367188 -1.648438 "/>
</g>
<g id="glyph-0-9">
<path d="M 3.277344 0 L 2.503906 0 L 2.503906 -4.929688 C 2.320312 -4.75 2.074219 -4.574219 1.773438 -4.394531 C 1.46875 -4.21875 1.199219 -4.085938 0.957031 -3.996094 L 0.957031 -4.742188 C 1.390625 -4.945312 1.769531 -5.195312 2.09375 -5.484375 C 2.417969 -5.773438 2.644531 -6.054688 2.78125 -6.324219 L 3.277344 -6.324219 Z M 3.277344 0 "/>
</g>
<g id="glyph-0-10">
<path d="M 4.429688 -0.742188 L 4.429688 0 L 0.265625 0 C 0.261719 -0.1875 0.289062 -0.367188 0.355469 -0.539062 C 0.460938 -0.820312 0.632812 -1.101562 0.867188 -1.375 C 1.097656 -1.648438 1.4375 -1.96875 1.878906 -2.328125 C 2.5625 -2.890625 3.023438 -3.335938 3.265625 -3.664062 C 3.507812 -3.992188 3.625 -4.300781 3.625 -4.59375 C 3.625 -4.898438 3.515625 -5.160156 3.296875 -5.367188 C 3.078125 -5.578125 2.792969 -5.683594 2.441406 -5.683594 C 2.066406 -5.683594 1.769531 -5.574219 1.546875 -5.351562 C 1.324219 -5.125 1.210938 -4.816406 1.207031 -4.421875 L 0.414062 -4.503906 C 0.46875 -5.097656 0.671875 -5.546875 1.027344 -5.859375 C 1.382812 -6.167969 1.859375 -6.324219 2.457031 -6.324219 C 3.0625 -6.324219 3.539062 -6.15625 3.894531 -5.824219 C 4.246094 -5.488281 4.421875 -5.070312 4.421875 -4.578125 C 4.421875 -4.324219 4.371094 -4.078125 4.265625 -3.832031 C 4.164062 -3.589844 3.992188 -3.332031 3.753906 -3.0625 C 3.515625 -2.792969 3.117188 -2.425781 2.5625 -1.957031 C 2.097656 -1.566406 1.800781 -1.300781 1.667969 -1.164062 C 1.535156 -1.023438 1.425781 -0.882812 1.339844 -0.742188 Z M 4.429688 -0.742188 "/>
</g>
<g id="glyph-0-11">
<path d="M 1.777344 0 L 0.109375 -6.300781 L 0.960938 -6.300781 L 1.921875 -2.171875 C 2.023438 -1.738281 2.113281 -1.308594 2.1875 -0.882812 C 2.347656 -1.554688 2.441406 -1.941406 2.46875 -2.046875 L 3.667969 -6.300781 L 4.675781 -6.300781 L 5.578125 -3.109375 C 5.804688 -2.320312 5.96875 -1.578125 6.066406 -0.882812 C 6.148438 -1.277344 6.253906 -1.734375 6.382812 -2.25 L 7.371094 -6.300781 L 8.207031 -6.300781 L 6.480469 0 L 5.675781 0 L 4.347656 -4.800781 C 4.238281 -5.199219 4.171875 -5.445312 4.152344 -5.539062 C 4.085938 -5.25 4.023438 -5.003906 3.964844 -4.800781 L 2.628906 0 Z M 1.777344 0 "/>
</g>
<g id="glyph-0-12">
<path d="M 0.578125 0 L 0.578125 -6.300781 L 1.351562 -6.300781 L 1.351562 -4.039062 C 1.714844 -4.457031 2.167969 -4.667969 2.71875 -4.667969 C 3.058594 -4.667969 3.351562 -4.601562 3.601562 -4.464844 C 3.851562 -4.332031 4.027344 -4.148438 4.136719 -3.914062 C 4.242188 -3.679688 4.296875 -3.339844 4.296875 -2.890625 L 4.296875 0 L 3.523438 0 L 3.523438 -2.890625 C 3.523438 -3.277344 3.441406 -3.558594 3.273438 -3.734375 C 3.105469 -3.914062 2.867188 -4 2.5625 -4 C 2.332031 -4 2.117188 -3.941406 1.914062 -3.820312 C 1.710938 -3.703125 1.570312 -3.542969 1.484375 -3.339844 C 1.398438 -3.136719 1.351562 -2.855469 1.351562 -2.496094 L 1.351562 0 Z M 0.578125 0 "/>
</g>
<g id="glyph-0-13">
<path d="M 0.585938 -5.410156 L 0.585938 -6.300781 L 1.359375 -6.300781 L 1.359375 -5.410156 L 0.585938 -5.410156 M 0.585938 0 L 0.585938 -4.5625 L 1.359375 -4.5625 L 1.359375 0 Z M 0.585938 0 "/>
</g>
<g id="glyph-0-14">
<path d="M 2.269531 -0.691406 L 2.378906 -0.0078125 C 2.164062 0.0390625 1.96875 0.0585938 1.796875 0.0585938 C 1.515625 0.0585938 1.296875 0.015625 1.144531 -0.0742188 C 0.988281 -0.160156 0.878906 -0.277344 0.816406 -0.421875 C 0.753906 -0.566406 0.722656 -0.871094 0.722656 -1.335938 L 0.722656 -3.960938 L 0.15625 -3.960938 L 0.15625 -4.5625 L 0.722656 -4.5625 L 0.722656 -5.695312 L 1.492188 -6.15625 L 1.492188 -4.5625 L 2.269531 -4.5625 L 2.269531 -3.960938 L 1.492188 -3.960938 L 1.492188 -1.292969 C 1.492188 -1.074219 1.503906 -0.929688 1.53125 -0.867188 C 1.558594 -0.804688 1.601562 -0.753906 1.664062 -0.71875 C 1.726562 -0.679688 1.816406 -0.660156 1.929688 -0.660156 C 2.015625 -0.660156 2.128906 -0.671875 2.269531 -0.691406 Z M 2.269531 -0.691406 "/>
</g>
<g id="glyph-0-15">
<path d="M 0.585938 0 L 0.585938 -6.300781 L 1.359375 -6.300781 L 1.359375 -2.707031 L 3.1875 -4.5625 L 4.1875 -4.5625 L 2.445312 -2.871094 L 4.367188 0 L 3.410156 0 L 1.902344 -2.332031 L 1.359375 -1.808594 L 1.359375 0 Z M 0.585938 0 "/>
</g>
<g id="glyph-0-16">
<path d="M 3.703125 -1.46875 L 4.503906 -1.371094 C 4.378906 -0.902344 4.144531 -0.542969 3.804688 -0.285156 C 3.460938 -0.0273438 3.027344 0.101562 2.496094 0.101562 C 1.828125 0.101562 1.300781 -0.101562 0.910156 -0.511719 C 0.519531 -0.925781 0.320312 -1.5 0.320312 -2.242188 C 0.320312 -3.011719 0.519531 -3.605469 0.914062 -4.03125 C 1.3125 -4.453125 1.824219 -4.667969 2.453125 -4.667969 C 3.0625 -4.667969 3.5625 -4.457031 3.949219 -4.042969 C 4.335938 -3.628906 4.527344 -3.042969 4.527344 -2.289062 C 4.527344 -2.246094 4.527344 -2.175781 4.523438 -2.085938 L 1.121094 -2.085938 C 1.148438 -1.582031 1.292969 -1.199219 1.546875 -0.933594 C 1.800781 -0.664062 2.121094 -0.53125 2.5 -0.53125 C 2.785156 -0.53125 3.027344 -0.605469 3.226562 -0.757812 C 3.425781 -0.90625 3.585938 -1.144531 3.703125 -1.46875 M 1.164062 -2.71875 L 3.710938 -2.71875 C 3.679688 -3.105469 3.582031 -3.390625 3.421875 -3.582031 C 3.175781 -3.882812 2.855469 -4.03125 2.460938 -4.03125 C 2.105469 -4.03125 1.808594 -3.910156 1.566406 -3.675781 C 1.324219 -3.4375 1.191406 -3.117188 1.164062 -2.71875 Z M 1.164062 -2.71875 "/>
</g>
<g id="glyph-0-17">
<path d="M 0.570312 0 L 0.570312 -4.5625 L 1.265625 -4.5625 L 1.265625 -3.871094 C 1.445312 -4.195312 1.609375 -4.410156 1.757812 -4.511719 C 1.910156 -4.613281 2.074219 -4.667969 2.257812 -4.667969 C 2.515625 -4.667969 2.78125 -4.582031 3.050781 -4.417969 L 2.785156 -3.699219 C 2.59375 -3.8125 2.40625 -3.867188 2.21875 -3.867188 C 2.046875 -3.867188 1.894531 -3.816406 1.761719 -3.714844 C 1.628906 -3.613281 1.53125 -3.472656 1.472656 -3.292969 C 1.386719 -3.015625 1.34375 -2.714844 1.34375 -2.390625 L 1.34375 0 Z M 0.570312 0 "/>
</g>
<g id="glyph-0-18">
<path d="M 0.269531 -1.363281 L 1.035156 -1.484375 C 1.078125 -1.175781 1.199219 -0.941406 1.394531 -0.777344 C 1.589844 -0.613281 1.863281 -0.53125 2.21875 -0.53125 C 2.574219 -0.53125 2.835938 -0.605469 3.007812 -0.75 C 3.179688 -0.894531 3.265625 -1.0625 3.265625 -1.257812 C 3.265625 -1.433594 3.191406 -1.570312 3.039062 -1.671875 C 2.933594 -1.742188 2.667969 -1.828125 2.246094 -1.933594 C 1.679688 -2.078125 1.285156 -2.199219 1.066406 -2.304688 C 0.847656 -2.410156 0.683594 -2.554688 0.570312 -2.738281 C 0.457031 -2.925781 0.398438 -3.128906 0.398438 -3.351562 C 0.398438 -3.554688 0.445312 -3.742188 0.539062 -3.917969 C 0.632812 -4.089844 0.757812 -4.234375 0.917969 -4.347656 C 1.039062 -4.4375 1.203125 -4.511719 1.410156 -4.574219 C 1.621094 -4.636719 1.84375 -4.667969 2.078125 -4.667969 C 2.4375 -4.667969 2.753906 -4.613281 3.023438 -4.511719 C 3.292969 -4.410156 3.492188 -4.269531 3.621094 -4.09375 C 3.75 -3.917969 3.839844 -3.679688 3.890625 -3.386719 L 3.132812 -3.28125 C 3.097656 -3.519531 3 -3.699219 2.832031 -3.832031 C 2.667969 -3.964844 2.4375 -4.03125 2.136719 -4.03125 C 1.78125 -4.03125 1.527344 -3.972656 1.375 -3.855469 C 1.222656 -3.738281 1.148438 -3.597656 1.148438 -3.441406 C 1.148438 -3.339844 1.179688 -3.25 1.242188 -3.171875 C 1.304688 -3.089844 1.402344 -3.019531 1.539062 -2.964844 C 1.617188 -2.9375 1.84375 -2.871094 2.222656 -2.765625 C 2.769531 -2.621094 3.148438 -2.5 3.367188 -2.410156 C 3.582031 -2.316406 3.753906 -2.179688 3.875 -2.003906 C 4 -1.824219 4.058594 -1.605469 4.0625 -1.339844 C 4.058594 -1.082031 3.984375 -0.839844 3.835938 -0.613281 C 3.683594 -0.382812 3.46875 -0.207031 3.183594 -0.0820312 C 2.902344 0.0390625 2.578125 0.101562 2.222656 0.101562 C 1.628906 0.101562 1.175781 -0.0195312 0.867188 -0.265625 C 0.554688 -0.511719 0.355469 -0.878906 0.269531 -1.363281 Z M 0.269531 -1.363281 "/>
</g>
<g id="glyph-0-19">
<path d="M 0.578125 0 L 0.578125 -4.5625 L 1.273438 -4.5625 L 1.273438 -3.921875 C 1.414062 -4.148438 1.605469 -4.328125 1.84375 -4.460938 C 2.082031 -4.597656 2.351562 -4.667969 2.65625 -4.667969 C 2.992188 -4.667969 3.269531 -4.597656 3.488281 -4.457031 C 3.703125 -4.316406 3.855469 -4.121094 3.945312 -3.867188 C 4.304688 -4.398438 4.773438 -4.667969 5.355469 -4.667969 C 5.804688 -4.667969 6.15625 -4.542969 6.398438 -4.289062 C 6.640625 -4.039062 6.761719 -3.652344 6.761719 -3.132812 L 6.761719 0 L 5.996094 0 L 5.996094 -2.875 C 5.996094 -3.183594 5.96875 -3.40625 5.917969 -3.542969 C 5.867188 -3.679688 5.777344 -3.789062 5.644531 -3.871094 C 5.515625 -3.953125 5.359375 -3.996094 5.183594 -3.996094 C 4.859375 -3.996094 4.59375 -3.890625 4.382812 -3.675781 C 4.171875 -3.460938 4.066406 -3.121094 4.066406 -2.652344 L 4.066406 0 L 3.292969 0 L 3.292969 -2.964844 C 3.292969 -3.308594 3.226562 -3.566406 3.101562 -3.738281 C 2.976562 -3.910156 2.769531 -3.996094 2.484375 -3.996094 C 2.265625 -3.996094 2.066406 -3.9375 1.878906 -3.824219 C 1.695312 -3.710938 1.5625 -3.542969 1.476562 -3.320312 C 1.394531 -3.101562 1.351562 -2.78125 1.351562 -2.367188 L 1.351562 0 Z M 0.578125 0 "/>
</g>
<g id="glyph-0-20">
<path d="M 0.292969 -2.28125 C 0.292969 -3.125 0.527344 -3.753906 0.996094 -4.160156 C 1.390625 -4.496094 1.867188 -4.667969 2.433594 -4.667969 C 3.058594 -4.667969 3.570312 -4.460938 3.96875 -4.050781 C 4.367188 -3.640625 4.566406 -3.070312 4.566406 -2.347656 C 4.566406 -1.757812 4.480469 -1.296875 4.304688 -0.960938 C 4.128906 -0.625 3.871094 -0.363281 3.535156 -0.175781 C 3.199219 0.0117188 2.832031 0.101562 2.433594 0.101562 C 1.792969 0.101562 1.277344 -0.101562 0.882812 -0.511719 C 0.488281 -0.921875 0.292969 -1.511719 0.292969 -2.28125 M 1.085938 -2.28125 C 1.085938 -1.699219 1.214844 -1.257812 1.46875 -0.96875 C 1.722656 -0.679688 2.046875 -0.53125 2.433594 -0.53125 C 2.816406 -0.53125 3.136719 -0.679688 3.390625 -0.972656 C 3.644531 -1.261719 3.773438 -1.707031 3.773438 -2.308594 C 3.773438 -2.871094 3.644531 -3.300781 3.386719 -3.589844 C 3.132812 -3.878906 2.8125 -4.027344 2.433594 -4.027344 C 2.046875 -4.027344 1.722656 -3.882812 1.46875 -3.59375 C 1.214844 -3.304688 1.085938 -2.867188 1.085938 -2.28125 Z M 1.085938 -2.28125 "/>
</g>
<g id="glyph-0-21">
<path d="M 0.691406 0 L 0.691406 -6.300781 L 3.484375 -6.300781 C 4.046875 -6.300781 4.472656 -6.242188 4.765625 -6.128906 C 5.058594 -6.015625 5.289062 -5.816406 5.464844 -5.53125 C 5.640625 -5.242188 5.726562 -4.925781 5.726562 -4.582031 C 5.726562 -4.132812 5.582031 -3.757812 5.292969 -3.449219 C 5.003906 -3.144531 4.558594 -2.949219 3.953125 -2.867188 C 4.171875 -2.761719 4.339844 -2.65625 4.457031 -2.550781 C 4.699219 -2.328125 4.929688 -2.050781 5.148438 -1.714844 L 6.242188 0 L 5.195312 0 L 4.359375 -1.3125 C 4.117188 -1.6875 3.917969 -1.976562 3.761719 -2.179688 C 3.601562 -2.378906 3.460938 -2.519531 3.335938 -2.601562 C 3.210938 -2.679688 3.085938 -2.734375 2.957031 -2.765625 C 2.863281 -2.789062 2.707031 -2.796875 2.492188 -2.796875 L 1.527344 -2.796875 L 1.527344 0 L 0.691406 0 M 1.527344 -3.519531 L 3.316406 -3.519531 C 3.699219 -3.519531 3.996094 -3.558594 4.210938 -3.636719 C 4.425781 -3.714844 4.589844 -3.84375 4.699219 -4.015625 C 4.8125 -4.1875 4.867188 -4.378906 4.867188 -4.582031 C 4.867188 -4.878906 4.761719 -5.125 4.542969 -5.316406 C 4.328125 -5.507812 3.984375 -5.601562 3.519531 -5.601562 L 1.527344 -5.601562 Z M 1.527344 -3.519531 "/>
</g>
<g id="glyph-0-22">
<path d="M 1.421875 0 L 0.0273438 -4.5625 L 0.824219 -4.5625 L 1.550781 -1.929688 L 1.820312 -0.949219 C 1.832031 -1 1.914062 -1.3125 2.058594 -1.890625 L 2.785156 -4.5625 L 3.578125 -4.5625 L 4.261719 -1.917969 L 4.492188 -1.042969 L 4.753906 -1.925781 L 5.535156 -4.5625 L 6.285156 -4.5625 L 4.859375 0 L 4.054688 0 L 3.332031 -2.734375 L 3.152344 -3.511719 L 2.230469 0 Z M 1.421875 0 "/>
</g>
<g id="glyph-0-23">
<path d="M 0.671875 0 L 0.671875 -6.300781 L 1.527344 -6.300781 L 4.835938 -1.351562 L 4.835938 -6.300781 L 5.632812 -6.300781 L 5.632812 0 L 4.777344 0 L 1.46875 -4.949219 L 1.46875 0 Z M 0.671875 0 "/>
</g>
<g id="glyph-0-24">
<path d="M 0.425781 -3.066406 C 0.425781 -4.113281 0.707031 -4.933594 1.265625 -5.523438 C 1.828125 -6.113281 2.554688 -6.410156 3.441406 -6.410156 C 4.023438 -6.410156 4.546875 -6.273438 5.015625 -5.996094 C 5.480469 -5.714844 5.835938 -5.328125 6.082031 -4.832031 C 6.328125 -4.335938 6.449219 -3.769531 6.449219 -3.140625 C 6.449219 -2.503906 6.320312 -1.929688 6.0625 -1.425781 C 5.804688 -0.921875 5.441406 -0.539062 4.96875 -0.28125 C 4.496094 -0.0234375 3.984375 0.109375 3.4375 0.109375 C 2.84375 0.109375 2.316406 -0.0351562 1.847656 -0.320312 C 1.378906 -0.609375 1.027344 -1 0.785156 -1.496094 C 0.546875 -1.992188 0.425781 -2.515625 0.425781 -3.066406 M 1.285156 -3.054688 C 1.285156 -2.296875 1.488281 -1.699219 1.898438 -1.261719 C 2.304688 -0.824219 2.816406 -0.605469 3.433594 -0.605469 C 4.0625 -0.605469 4.578125 -0.828125 4.980469 -1.265625 C 5.386719 -1.707031 5.589844 -2.335938 5.589844 -3.144531 C 5.589844 -3.65625 5.503906 -4.105469 5.332031 -4.488281 C 5.15625 -4.871094 4.902344 -5.167969 4.570312 -5.378906 C 4.234375 -5.589844 3.863281 -5.695312 3.445312 -5.695312 C 2.855469 -5.695312 2.347656 -5.492188 1.921875 -5.085938 C 1.496094 -4.679688 1.285156 -4.003906 1.285156 -3.054688 Z M 1.285156 -3.054688 "/>
</g>
<g id="glyph-1-0">
<path d="M 0 -0.835938 L -7.875 -0.839844 L -7.875 -1.90625 L -1.691406 -6.042969 L -7.875 -6.042969 L -7.875 -7.042969 L 0 -7.042969 L 0 -5.972656 L -6.1875 -1.835938 L 0 -1.835938 Z M 0 -0.835938 "/>
</g>
<g id="glyph-1-1">
<path d="M -3.835938 -0.53125 C -5.140625 -0.53125 -6.164062 -0.882812 -6.90625 -1.585938 C -7.644531 -2.285156 -8.015625 -3.191406 -8.015625 -4.300781 C -8.015625 -5.027344 -7.839844 -5.683594 -7.492188 -6.269531 C -7.144531 -6.851562 -6.660156 -7.296875 -6.039062 -7.601562 C -5.417969 -7.910156 -4.714844 -8.0625 -3.925781 -8.0625 C -3.128906 -8.0625 -2.414062 -7.902344 -1.78125 -7.578125 C -1.152344 -7.257812 -0.675781 -6.800781 -0.351562 -6.210938 C -0.0273438 -5.617188 0.132812 -4.980469 0.132812 -4.296875 C 0.132812 -3.554688 -0.0429688 -2.894531 -0.402344 -2.308594 C -0.761719 -1.726562 -1.25 -1.285156 -1.867188 -0.984375 C -2.488281 -0.683594 -3.144531 -0.53125 -3.835938 -0.53125 M -3.820312 -1.605469 C -2.871094 -1.605469 -2.121094 -1.859375 -1.578125 -2.371094 C -1.03125 -2.882812 -0.757812 -3.523438 -0.757812 -4.292969 C -0.757812 -5.074219 -1.03125 -5.722656 -1.585938 -6.226562 C -2.136719 -6.734375 -2.917969 -6.988281 -3.929688 -6.988281 C -4.574219 -6.988281 -5.132812 -6.878906 -5.609375 -6.664062 C -6.089844 -6.445312 -6.457031 -6.128906 -6.722656 -5.710938 C -6.984375 -5.296875 -7.117188 -4.828125 -7.117188 -4.308594 C -7.117188 -3.570312 -6.863281 -2.933594 -6.355469 -2.402344 C -5.851562 -1.871094 -5.003906 -1.605469 -3.820312 -1.605469 Z M -3.820312 -1.605469 "/>
</g>
<g id="glyph-1-2">
</g>
<g id="glyph-1-3">
<path d="M 2.316406 -2.574219 C 1.640625 -2.039062 0.855469 -1.589844 -0.046875 -1.21875 C -0.949219 -0.851562 -1.886719 -0.667969 -2.851562 -0.667969 C -3.703125 -0.667969 -4.519531 -0.804688 -5.300781 -1.078125 C -6.207031 -1.402344 -7.109375 -1.898438 -8.007812 -2.574219 L -8.007812 -3.265625 C -7.261719 -2.832031 -6.730469 -2.546875 -6.414062 -2.40625 C -5.917969 -2.1875 -5.402344 -2.015625 -4.867188 -1.890625 C -4.195312 -1.738281 -3.523438 -1.660156 -2.847656 -1.660156 C -1.125 -1.660156 0.597656 -2.195312 2.316406 -3.265625 Z M 2.316406 -2.574219 "/>
</g>
<g id="glyph-1-4">
<path d="M -5.703125 -5.46875 L 0 -5.46875 L 0 -4.601562 L -0.675781 -4.601562 C -0.390625 -4.417969 -0.191406 -4.234375 -0.0859375 -4.050781 C 0.0625 -3.800781 0.132812 -3.507812 0.132812 -3.175781 C 0.132812 -2.878906 0.0742188 -2.613281 -0.0429688 -2.382812 C -0.132812 -2.210938 -0.308594 -2.023438 -0.574219 -1.816406 L 2.1875 -1.816406 L 2.1875 -0.859375 L -5.703125 -0.859375 L -5.703125 -1.816406 L -3.289062 -1.816406 C -2.410156 -1.816406 -1.839844 -1.863281 -1.582031 -1.953125 C -1.320312 -2.046875 -1.117188 -2.199219 -0.964844 -2.410156 C -0.816406 -2.617188 -0.742188 -2.859375 -0.742188 -3.132812 C -0.742188 -3.417969 -0.820312 -3.671875 -0.976562 -3.898438 C -1.136719 -4.125 -1.339844 -4.285156 -1.585938 -4.378906 C -1.835938 -4.46875 -2.398438 -4.515625 -3.269531 -4.515625 L -5.703125 -4.515625 Z M -5.703125 -5.46875 "/>
</g>
<g id="glyph-1-5">
<path d="M 0.472656 -0.546875 L 0.613281 -1.488281 C 0.902344 -1.527344 1.113281 -1.636719 1.246094 -1.816406 C 1.425781 -2.054688 1.515625 -2.382812 1.515625 -2.796875 C 1.515625 -3.246094 1.425781 -3.589844 1.246094 -3.835938 C 1.066406 -4.078125 0.816406 -4.242188 0.496094 -4.328125 C 0.296875 -4.378906 -0.117188 -4.402344 -0.746094 -4.398438 C -0.25 -3.976562 0 -3.449219 0 -2.820312 C 0 -2.035156 -0.28125 -1.429688 -0.847656 -1 C -1.414062 -0.570312 -2.09375 -0.355469 -2.882812 -0.355469 C -3.429688 -0.355469 -3.929688 -0.453125 -4.390625 -0.648438 C -4.851562 -0.847656 -5.207031 -1.132812 -5.457031 -1.507812 C -5.707031 -1.878906 -5.832031 -2.320312 -5.832031 -2.824219 C -5.832031 -3.5 -5.5625 -4.054688 -5.015625 -4.492188 L -5.703125 -4.492188 L -5.703125 -5.382812 L -0.773438 -5.382812 C 0.113281 -5.382812 0.742188 -5.292969 1.113281 -5.109375 C 1.484375 -4.929688 1.777344 -4.644531 1.992188 -4.25 C 2.207031 -3.859375 2.316406 -3.375 2.316406 -2.804688 C 2.316406 -2.125 2.160156 -1.574219 1.855469 -1.15625 C 1.550781 -0.734375 1.089844 -0.535156 0.472656 -0.546875 M -2.953125 -1.347656 C -2.207031 -1.347656 -1.660156 -1.496094 -1.316406 -1.792969 C -0.972656 -2.089844 -0.800781 -2.464844 -0.800781 -2.910156 C -0.800781 -3.355469 -0.972656 -3.726562 -1.3125 -4.027344 C -1.65625 -4.328125 -2.191406 -4.480469 -2.921875 -4.480469 C -3.621094 -4.480469 -4.148438 -4.324219 -4.5 -4.015625 C -4.855469 -3.707031 -5.03125 -3.332031 -5.03125 -2.894531 C -5.03125 -2.464844 -4.859375 -2.101562 -4.507812 -1.800781 C -4.160156 -1.5 -3.640625 -1.347656 -2.953125 -1.347656 Z M -2.953125 -1.347656 "/>
</g>
<g id="glyph-1-6">
<path d="M 0.132812 0 L -8.007812 -2.28125 L -8.007812 -3.054688 L 0.132812 -0.777344 Z M 0.132812 0 "/>
</g>
<g id="glyph-1-7">
<path d="M 0 -0.726562 L -5.703125 -0.726562 L -5.703125 -1.589844 L -4.902344 -1.589844 C -5.183594 -1.769531 -5.40625 -2.007812 -5.578125 -2.304688 C -5.746094 -2.601562 -5.832031 -2.941406 -5.832031 -3.320312 C -5.832031 -3.742188 -5.746094 -4.089844 -5.570312 -4.359375 C -5.394531 -4.628906 -5.148438 -4.820312 -4.835938 -4.929688 C -5.5 -5.382812 -5.832031 -5.96875 -5.832031 -6.691406 C -5.832031 -7.257812 -5.675781 -7.691406 -5.363281 -7.996094 C -5.050781 -8.300781 -4.566406 -8.453125 -3.914062 -8.453125 L 0 -8.453125 L 0 -7.492188 L -3.59375 -7.492188 C -3.980469 -7.492188 -4.257812 -7.460938 -4.429688 -7.398438 C -4.597656 -7.335938 -4.734375 -7.222656 -4.839844 -7.058594 C -4.941406 -6.894531 -4.996094 -6.699219 -4.996094 -6.476562 C -4.996094 -6.078125 -4.863281 -5.742188 -4.59375 -5.476562 C -4.328125 -5.214844 -3.902344 -5.082031 -3.3125 -5.082031 L 0 -5.082031 L 0 -4.113281 L -3.707031 -4.113281 C -4.136719 -4.113281 -4.457031 -4.035156 -4.671875 -3.878906 C -4.886719 -3.71875 -4.996094 -3.460938 -4.996094 -3.105469 C -4.996094 -2.832031 -4.921875 -2.582031 -4.78125 -2.351562 C -4.636719 -2.117188 -4.425781 -1.953125 -4.152344 -1.847656 C -3.875 -1.742188 -3.480469 -1.691406 -2.960938 -1.691406 L 0 -1.691406 Z M 0 -0.726562 "/>
</g>
<g id="glyph-1-8">
<path d="M -4.988281 -0.175781 L -5.070312 -0.960938 C -4.855469 -1.03125 -4.707031 -1.125 -4.628906 -1.242188 C -4.523438 -1.394531 -4.46875 -1.578125 -4.46875 -1.789062 C -4.46875 -2.042969 -4.539062 -2.246094 -4.679688 -2.402344 C -4.816406 -2.554688 -4.984375 -2.632812 -5.183594 -2.632812 C -5.363281 -2.632812 -5.503906 -2.566406 -5.613281 -2.4375 C -5.71875 -2.308594 -5.773438 -2.089844 -5.773438 -1.777344 C -5.773438 -1.734375 -5.769531 -1.675781 -5.761719 -1.601562 C -5.757812 -1.550781 -5.757812 -1.511719 -5.757812 -1.484375 L -6.347656 -1.601562 C -6.34375 -1.890625 -6.398438 -2.101562 -6.503906 -2.238281 C -6.613281 -2.371094 -6.742188 -2.4375 -6.898438 -2.4375 C -7.027344 -2.4375 -7.140625 -2.386719 -7.234375 -2.277344 C -7.328125 -2.171875 -7.375 -2.011719 -7.375 -1.800781 C -7.375 -1.597656 -7.335938 -1.441406 -7.257812 -1.328125 C -7.175781 -1.214844 -7.035156 -1.117188 -6.828125 -1.035156 L -6.949219 -0.269531 C -7.328125 -0.414062 -7.59375 -0.601562 -7.746094 -0.824219 C -7.894531 -1.046875 -7.96875 -1.375 -7.96875 -1.804688 C -7.96875 -2.320312 -7.875 -2.695312 -7.683594 -2.929688 C -7.492188 -3.164062 -7.253906 -3.28125 -6.964844 -3.28125 C -6.769531 -3.28125 -6.59375 -3.21875 -6.441406 -3.089844 C -6.285156 -2.964844 -6.175781 -2.78125 -6.105469 -2.539062 C -6.027344 -2.859375 -5.898438 -3.09375 -5.71875 -3.246094 C -5.535156 -3.394531 -5.324219 -3.46875 -5.082031 -3.46875 C -4.75 -3.46875 -4.457031 -3.328125 -4.210938 -3.046875 C -3.964844 -2.761719 -3.839844 -2.359375 -3.839844 -1.835938 C -3.839844 -1.335938 -3.941406 -0.953125 -4.136719 -0.6875 C -4.335938 -0.421875 -4.621094 -0.253906 -4.988281 -0.175781 Z M -4.988281 -0.175781 "/>
</g>
<g id="glyph-1-9">
<path d="M 2.316406 -1.359375 L 2.316406 -0.664062 C 0.597656 -1.738281 -1.125 -2.273438 -2.847656 -2.273438 C -3.519531 -2.273438 -4.1875 -2.195312 -4.851562 -2.042969 C -5.386719 -1.917969 -5.902344 -1.75 -6.398438 -1.53125 C -6.71875 -1.390625 -7.257812 -1.101562 -8.007812 -0.667969 L -8.007812 -1.359375 C -7.109375 -2.03125 -6.207031 -2.53125 -5.300781 -2.851562 C -4.519531 -3.128906 -3.703125 -3.265625 -2.851562 -3.265625 C -1.886719 -3.265625 -0.949219 -3.082031 -0.046875 -2.710938 C 0.855469 -2.339844 1.640625 -1.890625 2.316406 -1.359375 Z M 2.316406 -1.359375 "/>
</g>
<g id="glyph-2-0">
<path d="M -0.652344 -3.875 L 0 -3.875 L 0 -0.234375 C -0.164062 -0.226562 -0.320312 -0.253906 -0.46875 -0.3125 C -0.71875 -0.40625 -0.960938 -0.554688 -1.203125 -0.757812 C -1.445312 -0.960938 -1.722656 -1.257812 -2.039062 -1.644531 C -2.527344 -2.242188 -2.917969 -2.648438 -3.207031 -2.855469 C -3.492188 -3.066406 -3.761719 -3.171875 -4.019531 -3.171875 C -4.289062 -3.171875 -4.511719 -3.078125 -4.699219 -2.886719 C -4.882812 -2.695312 -4.972656 -2.445312 -4.972656 -2.136719 C -4.972656 -1.808594 -4.875 -1.550781 -4.679688 -1.351562 C -4.484375 -1.15625 -4.214844 -1.058594 -3.867188 -1.054688 L -3.941406 -0.359375 C -4.460938 -0.410156 -4.855469 -0.585938 -5.125 -0.898438 C -5.398438 -1.210938 -5.535156 -1.625 -5.535156 -2.152344 C -5.535156 -2.679688 -5.386719 -3.097656 -5.09375 -3.40625 C -4.800781 -3.714844 -4.4375 -3.867188 -4.003906 -3.867188 C -3.785156 -3.867188 -3.566406 -3.824219 -3.355469 -3.734375 C -3.140625 -3.644531 -2.917969 -3.492188 -2.679688 -3.285156 C -2.445312 -3.074219 -2.121094 -2.726562 -1.710938 -2.242188 C -1.371094 -1.835938 -1.136719 -1.574219 -1.015625 -1.457031 C -0.894531 -1.34375 -0.773438 -1.25 -0.652344 -1.171875 Z M -0.652344 -3.875 "/>
</g>
<g id="glyph-3-0">
<path d="M 3.101562 -0.519531 L 3.101562 0 L 0.1875 0 C 0.183594 -0.128906 0.203125 -0.253906 0.25 -0.375 C 0.324219 -0.574219 0.441406 -0.769531 0.605469 -0.960938 C 0.769531 -1.15625 1.003906 -1.378906 1.3125 -1.628906 C 1.792969 -2.023438 2.117188 -2.335938 2.285156 -2.5625 C 2.453125 -2.792969 2.539062 -3.011719 2.539062 -3.214844 C 2.539062 -3.429688 2.460938 -3.609375 2.308594 -3.757812 C 2.15625 -3.90625 1.953125 -3.980469 1.707031 -3.980469 C 1.449219 -3.980469 1.238281 -3.902344 1.082031 -3.746094 C 0.925781 -3.589844 0.847656 -3.371094 0.84375 -3.09375 L 0.289062 -3.152344 C 0.328125 -3.566406 0.46875 -3.882812 0.71875 -4.101562 C 0.96875 -4.320312 1.300781 -4.425781 1.71875 -4.425781 C 2.144531 -4.425781 2.476562 -4.308594 2.726562 -4.074219 C 2.972656 -3.839844 3.09375 -3.550781 3.09375 -3.203125 C 3.09375 -3.027344 3.058594 -2.851562 2.988281 -2.683594 C 2.914062 -2.511719 2.792969 -2.332031 2.628906 -2.144531 C 2.460938 -1.957031 2.183594 -1.699219 1.792969 -1.367188 C 1.46875 -1.097656 1.257812 -0.910156 1.167969 -0.8125 C 1.074219 -0.714844 1 -0.617188 0.9375 -0.519531 Z M 3.101562 -0.519531 "/>
</g>
</g>
<clipPath id="clip-0">
<path clip-rule="nonzero" d="M 55.050781 31.175781 L 410.082031 31.175781 L 410.082031 205.746094 L 55.050781 205.746094 Z M 55.050781 31.175781 "/>
</clipPath>
<clipPath id="clip-1">
<path clip-rule="nonzero" d="M 55.050781 182 L 410.082031 182 L 410.082031 183 L 55.050781 183 Z M 55.050781 182 "/>
</clipPath>
<clipPath id="clip-2">
<path clip-rule="nonzero" d="M 55.050781 137 L 410.082031 137 L 410.082031 139 L 55.050781 139 Z M 55.050781 137 "/>
</clipPath>
<clipPath id="clip-3">
<path clip-rule="nonzero" d="M 55.050781 92 L 410.082031 92 L 410.082031 94 L 55.050781 94 Z M 55.050781 92 "/>
</clipPath>
<clipPath id="clip-4">
<path clip-rule="nonzero" d="M 55.050781 48 L 410.082031 48 L 410.082031 49 L 55.050781 49 Z M 55.050781 48 "/>
</clipPath>
<clipPath id="clip-5">
<path clip-rule="nonzero" d="M 68 31.175781 L 70 31.175781 L 70 205.746094 L 68 205.746094 Z M 68 31.175781 "/>
</clipPath>
<clipPath id="clip-6">
<path clip-rule="nonzero" d="M 145 31.175781 L 146 31.175781 L 146 205.746094 L 145 205.746094 Z M 145 31.175781 "/>
</clipPath>
<clipPath id="clip-7">
<path clip-rule="nonzero" d="M 221 31.175781 L 223 31.175781 L 223 205.746094 L 221 205.746094 Z M 221 31.175781 "/>
</clipPath>
<clipPath id="clip-8">
<path clip-rule="nonzero" d="M 298 31.175781 L 299 31.175781 L 299 205.746094 L 298 205.746094 Z M 298 31.175781 "/>
</clipPath>
<clipPath id="clip-9">
<path clip-rule="nonzero" d="M 374 31.175781 L 376 31.175781 L 376 205.746094 L 374 205.746094 Z M 374 31.175781 "/>
</clipPath>
<clipPath id="clip-10">
<path clip-rule="nonzero" d="M 55.050781 204 L 410.082031 204 L 410.082031 205.746094 L 55.050781 205.746094 Z M 55.050781 204 "/>
</clipPath>
<clipPath id="clip-11">
<path clip-rule="nonzero" d="M 55.050781 159 L 410.082031 159 L 410.082031 161 L 55.050781 161 Z M 55.050781 159 "/>
</clipPath>
<clipPath id="clip-12">
<path clip-rule="nonzero" d="M 55.050781 114 L 410.082031 114 L 410.082031 117 L 55.050781 117 Z M 55.050781 114 "/>
</clipPath>
<clipPath id="clip-13">
<path clip-rule="nonzero" d="M 55.050781 70 L 410.082031 70 L 410.082031 72 L 55.050781 72 Z M 55.050781 70 "/>
</clipPath>
<clipPath id="clip-14">
<path clip-rule="nonzero" d="M 106 31.175781 L 108 31.175781 L 108 205.746094 L 106 205.746094 Z M 106 31.175781 "/>
</clipPath>
<clipPath id="clip-15">
<path clip-rule="nonzero" d="M 183 31.175781 L 185 31.175781 L 185 205.746094 L 183 205.746094 Z M 183 31.175781 "/>
</clipPath>
<clipPath id="clip-16">
<path clip-rule="nonzero" d="M 259 31.175781 L 261 31.175781 L 261 205.746094 L 259 205.746094 Z M 259 31.175781 "/>
</clipPath>
<clipPath id="clip-17">
<path clip-rule="nonzero" d="M 336 31.175781 L 338 31.175781 L 338 205.746094 L 336 205.746094 Z M 336 31.175781 "/>
</clipPath>
<clipPath id="clip-18">
<path clip-rule="nonzero" d="M 55.050781 31.175781 L 410.082031 31.175781 L 410.082031 205.746094 L 55.050781 205.746094 Z M 55.050781 31.175781 "/>
</clipPath>
</defs>
<rect x="-43.2" y="-28.8" width="518.4" height="345.6" fill="rgb(100%, 100%, 100%)" fill-opacity="1"/>
<g clip-path="url(#clip-0)">
<path fill-rule="nonzero" fill="rgb(100%, 100%, 100%)" fill-opacity="1" d="M 55.050781 205.746094 L 410.082031 205.746094 L 410.082031 31.175781 L 55.050781 31.175781 Z M 55.050781 205.746094 "/>
</g>
<g clip-path="url(#clip-1)">
<path fill="none" stroke-width="0.533489" stroke-linecap="butt" stroke-linejoin="round" stroke="rgb(92.156863%, 92.156863%, 92.156863%)" stroke-opacity="1" stroke-miterlimit="10" d="M 55.050781 182.292969 L 410.082031 182.292969 "/>
</g>
<g clip-path="url(#clip-2)">
<path fill="none" stroke-width="0.533489" stroke-linecap="butt" stroke-linejoin="round" stroke="rgb(92.156863%, 92.156863%, 92.156863%)" stroke-opacity="1" stroke-miterlimit="10" d="M 55.050781 137.757812 L 410.082031 137.757812 "/>
</g>
<g clip-path="url(#clip-3)">
<path fill="none" stroke-width="0.533489" stroke-linecap="butt" stroke-linejoin="round" stroke="rgb(92.156863%, 92.156863%, 92.156863%)" stroke-opacity="1" stroke-miterlimit="10" d="M 55.050781 93.226562 L 410.082031 93.226562 "/>
</g>
<g clip-path="url(#clip-4)">
<path fill="none" stroke-width="0.533489" stroke-linecap="butt" stroke-linejoin="round" stroke="rgb(92.156863%, 92.156863%, 92.156863%)" stroke-opacity="1" stroke-miterlimit="10" d="M 55.050781 48.691406 L 410.082031 48.691406 "/>
</g>
<g clip-path="url(#clip-5)">
<path fill="none" stroke-width="0.533489" stroke-linecap="butt" stroke-linejoin="round" stroke="rgb(92.156863%, 92.156863%, 92.156863%)" stroke-opacity="1" stroke-miterlimit="10" d="M 68.964844 205.746094 L 68.964844 31.175781 "/>
</g>
<g clip-path="url(#clip-6)">
<path fill="none" stroke-width="0.533489" stroke-linecap="butt" stroke-linejoin="round" stroke="rgb(92.156863%, 92.156863%, 92.156863%)" stroke-opacity="1" stroke-miterlimit="10" d="M 145.417969 205.746094 L 145.417969 31.175781 "/>
</g>
<g clip-path="url(#clip-7)">
<path fill="none" stroke-width="0.533489" stroke-linecap="butt" stroke-linejoin="round" stroke="rgb(92.156863%, 92.156863%, 92.156863%)" stroke-opacity="1" stroke-miterlimit="10" d="M 221.871094 205.746094 L 221.871094 31.175781 "/>
</g>
<g clip-path="url(#clip-8)">
<path fill="none" stroke-width="0.533489" stroke-linecap="butt" stroke-linejoin="round" stroke="rgb(92.156863%, 92.156863%, 92.156863%)" stroke-opacity="1" stroke-miterlimit="10" d="M 298.328125 205.746094 L 298.328125 31.175781 "/>
</g>
<g clip-path="url(#clip-9)">
<path fill="none" stroke-width="0.533489" stroke-linecap="butt" stroke-linejoin="round" stroke="rgb(92.156863%, 92.156863%, 92.156863%)" stroke-opacity="1" stroke-miterlimit="10" d="M 374.78125 205.746094 L 374.78125 31.175781 "/>
</g>
<g clip-path="url(#clip-10)">
<path fill="none" stroke-width="1.066978" stroke-linecap="butt" stroke-linejoin="round" stroke="rgb(92.156863%, 92.156863%, 92.156863%)" stroke-opacity="1" stroke-miterlimit="10" d="M 55.050781 204.558594 L 410.082031 204.558594 "/>
</g>
<g clip-path="url(#clip-11)">
<path fill="none" stroke-width="1.066978" stroke-linecap="butt" stroke-linejoin="round" stroke="rgb(92.156863%, 92.156863%, 92.156863%)" stroke-opacity="1" stroke-miterlimit="10" d="M 55.050781 160.027344 L 410.082031 160.027344 "/>
</g>
<g clip-path="url(#clip-12)">
<path fill="none" stroke-width="1.066978" stroke-linecap="butt" stroke-linejoin="round" stroke="rgb(92.156863%, 92.156863%, 92.156863%)" stroke-opacity="1" stroke-miterlimit="10" d="M 55.050781 115.492188 L 410.082031 115.492188 "/>
</g>
<g clip-path="url(#clip-13)">
<path fill="none" stroke-width="1.066978" stroke-linecap="butt" stroke-linejoin="round" stroke="rgb(92.156863%, 92.156863%, 92.156863%)" stroke-opacity="1" stroke-miterlimit="10" d="M 55.050781 70.957031 L 410.082031 70.957031 "/>
</g>
<g clip-path="url(#clip-14)">
<path fill="none" stroke-width="1.066978" stroke-linecap="butt" stroke-linejoin="round" stroke="rgb(92.156863%, 92.156863%, 92.156863%)" stroke-opacity="1" stroke-miterlimit="10" d="M 107.191406 205.746094 L 107.191406 31.175781 "/>
</g>
<g clip-path="url(#clip-15)">
<path fill="none" stroke-width="1.066978" stroke-linecap="butt" stroke-linejoin="round" stroke="rgb(92.156863%, 92.156863%, 92.156863%)" stroke-opacity="1" stroke-miterlimit="10" d="M 183.644531 205.746094 L 183.644531 31.175781 "/>
</g>
<g clip-path="url(#clip-16)">
<path fill="none" stroke-width="1.066978" stroke-linecap="butt" stroke-linejoin="round" stroke="rgb(92.156863%, 92.156863%, 92.156863%)" stroke-opacity="1" stroke-miterlimit="10" d="M 260.097656 205.746094 L 260.097656 31.175781 "/>
</g>
<g clip-path="url(#clip-17)">
<path fill="none" stroke-width="1.066978" stroke-linecap="butt" stroke-linejoin="round" stroke="rgb(92.156863%, 92.156863%, 92.156863%)" stroke-opacity="1" stroke-miterlimit="10" d="M 336.554688 205.746094 L 336.554688 31.175781 "/>
</g>
<path fill="none" stroke-width="2.133957" stroke-linecap="butt" stroke-linejoin="round" stroke="rgb(100%, 38.823529%, 27.843137%)" stroke-opacity="1" stroke-miterlimit="10" d="M 63.503906 129.210938 L 63.960938 130.667969 L 64.414062 132.132812 L 64.871094 133.617188 L 65.324219 135.128906 L 65.78125 136.671875 L 66.234375 138.230469 L 66.691406 139.785156 L 67.144531 141.332031 L 67.601562 142.851562 L 68.054688 144.332031 L 68.511719 145.757812 L 68.964844 147.121094 L 69.421875 148.414062 L 69.875 149.632812 L 70.332031 150.761719 L 70.785156 151.785156 L 71.242188 152.675781 L 71.695312 153.429688 L 72.152344 154.03125 L 72.605469 154.484375 L 73.0625 154.792969 L 73.515625 154.972656 L 73.972656 155.027344 L 74.425781 154.957031 L 74.882812 154.765625 L 75.335938 154.449219 L 75.792969 154.003906 L 76.246094 153.433594 L 76.703125 152.75 L 77.15625 151.972656 L 77.613281 151.132812 L 78.066406 150.265625 L 78.523438 149.40625 L 78.976562 148.59375 L 79.433594 147.851562 L 79.886719 147.1875 L 80.34375 146.605469 L 80.796875 146.097656 L 81.253906 145.683594 L 81.707031 145.371094 L 82.164062 145.179688 L 82.617188 145.117188 L 83.074219 145.175781 L 83.527344 145.351562 L 83.984375 145.628906 L 84.4375 145.984375 L 84.894531 146.394531 L 85.347656 146.828125 L 85.804688 147.253906 L 86.257812 147.636719 L 86.714844 147.9375 L 87.167969 148.125 L 87.625 148.183594 L 88.078125 148.113281 L 88.535156 147.921875 L 88.988281 147.636719 L 89.445312 147.292969 L 89.898438 146.921875 L 90.355469 146.5625 L 90.808594 146.242188 L 91.265625 145.984375 L 91.71875 145.808594 L 92.175781 145.734375 L 92.628906 145.757812 L 93.085938 145.878906 L 93.539062 146.078125 L 93.996094 146.351562 L 94.449219 146.6875 L 94.90625 147.082031 L 95.359375 147.519531 L 95.816406 147.996094 L 96.269531 148.503906 L 96.726562 149.023438 L 97.179688 149.53125 L 97.636719 150.011719 L 98.089844 150.449219 L 98.546875 150.835938 L 99 151.164062 L 99.457031 151.429688 L 99.910156 151.625 L 100.367188 151.753906 L 100.820312 151.816406 L 101.277344 151.816406 L 101.730469 151.765625 L 102.1875 151.65625 L 102.640625 151.488281 L 103.097656 151.265625 L 103.550781 150.984375 L 104.007812 150.648438 L 104.460938 150.242188 L 104.917969 149.765625 L 105.371094 149.207031 L 105.828125 148.5625 L 106.28125 147.824219 L 106.738281 146.996094 L 107.191406 146.070312 L 107.648438 145.050781 L 108.101562 143.949219 L 108.558594 142.769531 L 109.011719 141.527344 L 109.46875 140.261719 L 109.921875 139.007812 L 110.378906 137.820312 L 110.832031 136.738281 L 111.289062 135.789062 L 111.742188 134.988281 L 112.199219 134.351562 L 112.652344 133.902344 L 113.109375 133.625 L 113.5625 133.519531 L 114.019531 133.566406 L 114.472656 133.753906 L 114.929688 134.054688 L 115.382812 134.429688 L 115.839844 134.84375 L 116.292969 135.25 L 116.75 135.625 L 117.203125 135.945312 L 117.660156 136.195312 L 118.113281 136.371094 L 118.570312 136.464844 L 119.023438 136.480469 L 119.480469 136.429688 L 119.933594 136.316406 L 120.390625 136.160156 L 120.84375 135.988281 L 121.300781 135.839844 L 121.753906 135.75 L 122.210938 135.75 L 122.664062 135.859375 L 123.121094 136.085938 L 123.574219 136.4375 L 124.03125 136.90625 L 124.484375 137.480469 L 124.941406 138.125 L 125.394531 138.816406 L 125.851562 139.53125 L 126.304688 140.238281 L 126.761719 140.917969 L 127.214844 141.535156 L 127.671875 142.070312 L 128.125 142.5 L 128.582031 142.804688 L 129.035156 142.972656 L 129.492188 142.992188 L 129.945312 142.851562 L 130.402344 142.5625 L 130.855469 142.136719 L 131.3125 141.589844 L 131.765625 140.960938 L 132.222656 140.28125 L 132.675781 139.582031 L 133.132812 138.902344 L 133.585938 138.273438 L 134.042969 137.710938 L 134.496094 137.21875 L 134.953125 136.808594 L 135.40625 136.480469 L 135.863281 136.25 L 136.316406 136.121094 L 136.773438 136.085938 L 137.226562 136.144531 L 137.683594 136.292969 L 138.136719 136.515625 L 138.59375 136.792969 L 139.046875 137.097656 L 139.503906 137.40625 L 139.957031 137.691406 L 140.414062 137.941406 L 140.867188 138.132812 L 141.324219 138.261719 L 141.777344 138.335938 L 142.234375 138.363281 L 142.6875 138.378906 L 143.144531 138.40625 L 143.597656 138.484375 L 144.054688 138.636719 L 144.507812 138.882812 L 144.964844 139.242188 L 145.417969 139.71875 L 145.875 140.3125 L 146.328125 141.03125 L 146.785156 141.863281 L 147.238281 142.792969 L 147.695312 143.792969 L 148.148438 144.832031 L 148.605469 145.882812 L 149.058594 146.917969 L 149.515625 147.910156 L 149.96875 148.835938 L 150.425781 149.660156 L 150.878906 150.351562 L 151.335938 150.875 L 151.789062 151.207031 L 152.246094 151.332031 L 152.699219 151.25 L 153.15625 150.957031 L 153.609375 150.476562 L 154.066406 149.832031 L 154.519531 149.0625 L 154.976562 148.1875 L 155.429688 147.238281 L 155.886719 146.238281 L 156.339844 145.207031 L 156.796875 144.160156 L 157.25 143.117188 L 157.707031 142.089844 L 158.160156 141.097656 L 158.617188 140.148438 L 159.070312 139.265625 L 159.527344 138.460938 L 159.980469 137.75 L 160.4375 137.144531 L 160.890625 136.644531 L 161.347656 136.25 L 161.800781 135.949219 L 162.257812 135.738281 L 162.710938 135.597656 L 163.167969 135.519531 L 163.621094 135.484375 L 164.078125 135.476562 L 164.53125 135.496094 L 164.988281 135.546875 L 165.441406 135.640625 L 165.898438 135.78125 L 166.351562 135.976562 L 166.808594 136.246094 L 167.261719 136.582031 L 167.71875 136.980469 L 168.171875 137.441406 L 168.628906 137.957031 L 169.082031 138.523438 L 169.539062 139.121094 L 169.992188 139.75 L 170.449219 140.394531 L 170.902344 141.042969 L 171.359375 141.6875 L 171.8125 142.320312 L 172.269531 142.933594 L 172.722656 143.519531 L 173.179688 144.066406 L 173.632812 144.570312 L 174.089844 145.019531 L 174.542969 145.40625 L 175 145.730469 L 175.453125 145.984375 L 175.910156 146.179688 L 176.363281 146.316406 L 176.820312 146.402344 L 177.273438 146.445312 L 177.730469 146.449219 L 178.183594 146.421875 L 178.640625 146.371094 L 179.09375 146.292969 L 179.550781 146.195312 L 180.003906 146.085938 L 180.460938 145.972656 L 180.914062 145.867188 L 181.371094 145.773438 L 181.824219 145.6875 L 182.28125 145.59375 L 182.734375 145.476562 L 183.191406 145.320312 L 183.644531 145.101562 L 184.101562 144.8125 L 184.554688 144.441406 L 185.011719 143.980469 L 185.464844 143.4375 L 185.921875 142.824219 L 186.375 142.167969 L 186.832031 141.507812 L 187.285156 140.882812 L 187.742188 140.320312 L 188.195312 139.855469 L 188.652344 139.5 L 189.105469 139.28125 L 189.5625 139.203125 L 190.015625 139.285156 L 190.472656 139.539062 L 190.925781 139.949219 L 191.382812 140.492188 L 191.835938 141.148438 L 192.292969 141.890625 L 192.746094 142.6875 L 193.203125 143.515625 L 193.65625 144.335938 L 194.113281 145.128906 L 194.566406 145.859375 L 195.023438 146.511719 L 195.476562 147.066406 L 195.933594 147.515625 L 196.386719 147.859375 L 196.84375 148.101562 L 197.296875 148.25 L 197.753906 148.324219 L 198.207031 148.351562 L 198.664062 148.34375 L 199.117188 148.324219 L 199.574219 148.324219 L 200.027344 148.351562 L 200.484375 148.429688 L 200.9375 148.554688 L 201.394531 148.722656 L 201.847656 148.921875 L 202.304688 149.136719 L 202.757812 149.339844 L 203.214844 149.507812 L 203.667969 149.589844 L 204.125 149.5625 L 204.578125 149.386719 L 205.035156 149.042969 L 205.488281 148.511719 L 205.945312 147.792969 L 206.398438 146.886719 L 206.855469 145.804688 L 207.308594 144.554688 L 207.765625 143.152344 L 208.21875 141.617188 L 208.675781 139.984375 L 209.128906 138.308594 L 209.585938 136.636719 L 210.039062 135.003906 L 210.496094 133.460938 L 210.949219 132.035156 L 211.40625 130.765625 L 211.859375 129.679688 L 212.316406 128.796875 L 212.769531 128.113281 L 213.226562 127.621094 L 213.679688 127.289062 L 214.136719 127.070312 L 214.589844 126.9375 L 215.046875 126.84375 L 215.5 126.75 L 215.957031 126.609375 L 216.410156 126.371094 L 216.867188 125.992188 L 217.320312 125.425781 L 217.777344 124.628906 L 218.230469 123.597656 L 218.6875 122.335938 L 219.140625 120.882812 L 219.597656 119.308594 L 220.050781 117.667969 L 220.507812 116.035156 L 220.960938 114.472656 L 221.417969 113.046875 L 221.871094 111.820312 L 222.328125 110.859375 L 222.78125 110.203125 L 223.238281 109.886719 L 223.691406 109.925781 L 224.148438 110.308594 L 224.601562 111.003906 L 225.058594 111.964844 L 225.511719 113.144531 L 225.96875 114.515625 L 226.421875 116.023438 L 226.878906 117.628906 L 227.332031 119.292969 L 227.789062 120.96875 L 228.242188 122.625 L 228.699219 124.246094 L 229.152344 125.8125 L 229.609375 127.332031 L 230.0625 128.816406 L 230.519531 130.28125 L 230.972656 131.738281 L 231.429688 133.171875 L 231.882812 134.554688 L 232.339844 135.855469 L 232.792969 137.046875 L 233.25 138.097656 L 233.703125 138.996094 L 234.160156 139.738281 L 234.613281 140.3125 L 235.070312 140.71875 L 235.523438 140.953125 L 235.980469 141.027344 L 236.433594 140.957031 L 236.890625 140.769531 L 237.34375 140.488281 L 237.800781 140.144531 L 238.253906 139.757812 L 238.710938 139.339844 L 239.164062 138.898438 L 239.621094 138.433594 L 240.074219 137.945312 L 240.53125 137.433594 L 240.984375 136.902344 L 241.441406 136.375 L 241.894531 135.867188 L 242.351562 135.40625 L 242.804688 135.015625 L 243.261719 134.714844 L 243.714844 134.53125 L 244.171875 134.492188 L 244.625 134.621094 L 245.082031 134.925781 L 245.535156 135.417969 L 245.992188 136.09375 L 246.445312 136.941406 L 246.902344 137.925781 L 247.355469 139.011719 L 247.8125 140.171875 L 248.265625 141.367188 L 248.722656 142.566406 L 249.175781 143.722656 L 249.632812 144.804688 L 250.085938 145.773438 L 250.542969 146.605469 L 250.996094 147.273438 L 251.453125 147.773438 L 251.90625 148.097656 L 252.363281 148.261719 L 252.816406 148.300781 L 253.273438 148.242188 L 253.726562 148.136719 L 254.183594 148.039062 L 254.636719 147.988281 L 255.09375 148.03125 L 255.546875 148.191406 L 256.003906 148.496094 L 256.457031 148.953125 L 256.914062 149.566406 L 257.367188 150.328125 L 257.824219 151.226562 L 258.277344 152.253906 L 258.734375 153.382812 L 259.1875 154.59375 L 259.644531 155.855469 L 260.097656 157.125 L 260.554688 158.355469 L 261.007812 159.5 L 261.464844 160.519531 L 261.917969 161.390625 L 262.375 162.105469 L 262.828125 162.671875 L 263.285156 163.109375 L 263.738281 163.4375 L 264.195312 163.679688 L 264.648438 163.859375 L 265.105469 164 L 265.558594 164.113281 L 266.015625 164.203125 L 266.46875 164.285156 L 266.925781 164.359375 L 267.378906 164.433594 L 267.835938 164.5 L 268.289062 164.550781 L 268.746094 164.578125 L 269.199219 164.550781 L 269.65625 164.445312 L 270.109375 164.234375 L 270.566406 163.878906 L 271.019531 163.355469 L 271.476562 162.632812 L 271.929688 161.699219 L 272.386719 160.539062 L 272.839844 159.160156 L 273.296875 157.574219 L 273.75 155.800781 L 274.207031 153.878906 L 274.660156 151.839844 L 275.117188 149.71875 L 275.570312 147.542969 L 276.027344 145.34375 L 276.480469 143.144531 L 276.9375 140.960938 L 277.390625 138.8125 L 277.847656 136.703125 L 278.300781 134.625 L 278.757812 132.574219 L 279.210938 130.542969 L 279.667969 128.527344 L 280.121094 126.519531 L 280.578125 124.503906 L 281.03125 122.492188 L 281.488281 120.476562 L 281.941406 118.472656 L 282.398438 116.503906 L 282.851562 114.597656 L 283.308594 112.785156 L 283.761719 111.101562 L 284.21875 109.570312 L 284.671875 108.210938 L 285.128906 107.035156 L 285.582031 106.078125 L 286.039062 105.347656 L 286.492188 104.863281 L 286.949219 104.640625 L 287.402344 104.6875 L 287.859375 104.992188 L 288.3125 105.550781 L 288.769531 106.332031 L 289.222656 107.304688 L 289.679688 108.429688 L 290.132812 109.652344 L 290.589844 110.933594 L 291.046875 112.222656 L 291.5 113.488281 L 291.957031 114.683594 L 292.410156 115.78125 L 292.867188 116.746094 L 293.320312 117.554688 L 293.777344 118.191406 L 294.230469 118.652344 L 294.6875 118.953125 L 295.140625 119.105469 L 295.597656 119.140625 L 296.050781 119.113281 L 296.507812 119.070312 L 296.960938 119.046875 L 297.417969 119.074219 L 297.871094 119.171875 L 298.328125 119.378906 L 298.78125 119.710938 L 299.238281 120.195312 L 299.691406 120.863281 L 300.148438 121.734375 L 300.601562 122.820312 L 301.058594 124.105469 L 301.511719 125.550781 L 301.96875 127.113281 L 302.421875 128.746094 L 302.878906 130.414062 L 303.332031 132.066406 L 303.789062 133.667969 L 304.242188 135.191406 L 304.699219 136.613281 L 305.152344 137.933594 L 305.609375 139.152344 L 306.0625 140.277344 L 306.519531 141.335938 L 306.972656 142.351562 L 307.429688 143.347656 L 307.882812 144.34375 L 308.339844 145.355469 L 308.792969 146.398438 L 309.25 147.472656 L 309.703125 148.589844 L 310.160156 149.753906 L 310.613281 150.960938 L 311.070312 152.199219 L 311.523438 153.460938 L 311.980469 154.730469 L 312.433594 155.992188 L 312.890625 157.234375 L 313.34375 158.4375 L 313.800781 159.585938 L 314.253906 160.664062 L 314.710938 161.667969 L 315.164062 162.589844 L 315.621094 163.429688 L 316.074219 164.1875 L 316.53125 164.867188 L 316.984375 165.464844 L 317.441406 165.992188 L 317.894531 166.464844 L 318.351562 166.890625 L 318.804688 167.289062 L 319.261719 167.660156 L 319.714844 168.011719 L 320.171875 168.34375 L 320.625 168.667969 L 321.082031 168.984375 L 321.535156 169.3125 L 321.992188 169.660156 L 322.445312 170.039062 L 322.902344 170.453125 L 323.355469 170.910156 L 323.8125 171.394531 L 324.265625 171.90625 L 324.722656 172.421875 L 325.175781 172.933594 L 325.632812 173.417969 L 326.085938 173.867188 L 326.542969 174.265625 L 326.996094 174.597656 L 327.453125 174.855469 L 327.90625 175.03125 L 328.363281 175.125 L 328.816406 175.132812 L 329.273438 175.070312 L 329.726562 174.933594 L 330.183594 174.738281 L 330.636719 174.496094 L 331.09375 174.214844 L 331.546875 173.902344 L 332.003906 173.5625 L 332.457031 173.203125 L 332.914062 172.816406 L 333.367188 172.40625 L 333.824219 171.972656 L 334.277344 171.507812 L 334.734375 170.992188 L 335.1875 170.414062 L 335.644531 169.761719 L 336.097656 169.023438 L 336.554688 168.191406 L 337.007812 167.261719 L 337.464844 166.230469 L 337.917969 165.09375 L 338.375 163.863281 L 338.828125 162.554688 L 339.285156 161.195312 L 339.738281 159.816406 L 340.195312 158.441406 L 340.648438 157.097656 L 341.105469 155.792969 L 341.558594 154.546875 L 342.015625 153.367188 L 342.46875 152.265625 L 342.925781 151.253906 L 343.378906 150.347656 L 343.835938 149.554688 L 344.289062 148.878906 L 344.746094 148.308594 L 345.199219 147.832031 L 345.65625 147.4375 L 346.109375 147.109375 L 346.566406 146.824219 L 347.019531 146.5625 L 347.476562 146.3125 L 347.929688 146.054688 L 348.386719 145.773438 L 348.839844 145.449219 L 349.296875 145.082031 L 349.75 144.667969 L 350.207031 144.214844 L 350.660156 143.738281 L 351.117188 143.265625 L 351.570312 142.804688 L 352.027344 142.371094 L 352.480469 141.984375 L 352.9375 141.648438 L 353.390625 141.375 L 353.847656 141.167969 L 354.300781 141.039062 L 354.757812 141 L 355.210938 141.046875 L 355.667969 141.175781 L 356.121094 141.371094 L 356.578125 141.621094 L 357.03125 141.90625 L 357.488281 142.199219 L 357.941406 142.472656 L 358.398438 142.699219 L 358.851562 142.855469 L 359.308594 142.910156 L 359.761719 142.859375 L 360.21875 142.6875 L 360.671875 142.398438 L 361.128906 142.015625 L 361.582031 141.554688 L 362.039062 141.039062 L 362.492188 140.488281 L 362.949219 139.925781 L 363.402344 139.367188 L 363.859375 138.835938 L 364.3125 138.351562 L 364.769531 137.929688 L 365.222656 137.589844 L 365.679688 137.324219 L 366.132812 137.148438 L 366.589844 137.058594 L 367.042969 137.050781 L 367.5 137.109375 L 367.953125 137.222656 L 368.410156 137.363281 L 368.863281 137.511719 L 369.320312 137.648438 L 369.773438 137.753906 L 370.230469 137.808594 L 370.683594 137.800781 L 371.140625 137.722656 L 371.59375 137.585938 L 372.050781 137.390625 L 372.503906 137.15625 L 372.960938 136.910156 L 373.414062 136.667969 L 373.871094 136.441406 L 374.324219 136.246094 L 374.78125 136.082031 L 375.234375 135.957031 L 375.691406 135.851562 L 376.144531 135.765625 L 376.601562 135.683594 L 377.054688 135.59375 L 377.511719 135.496094 L 377.964844 135.375 L 378.421875 135.222656 L 378.875 135.023438 L 379.332031 134.773438 L 379.785156 134.457031 L 380.242188 134.074219 L 380.695312 133.621094 L 381.152344 133.101562 L 381.605469 132.519531 L 382.0625 131.890625 L 382.515625 131.234375 L 382.972656 130.578125 L 383.425781 129.964844 L 383.882812 129.433594 L 384.335938 129.019531 L 384.792969 128.746094 L 385.246094 128.628906 L 385.703125 128.65625 L 386.15625 128.824219 L 386.613281 129.105469 L 387.066406 129.484375 L 387.523438 129.941406 L 387.976562 130.457031 L 388.433594 131.007812 L 388.886719 131.566406 L 389.34375 132.117188 L 389.796875 132.636719 L 390.253906 133.109375 L 390.707031 133.53125 L 391.164062 133.886719 L 391.617188 134.167969 L 392.074219 134.363281 L 392.527344 134.464844 L 392.984375 134.472656 L 393.4375 134.386719 L 393.894531 134.222656 L 394.347656 133.988281 L 394.804688 133.71875 L 395.257812 133.441406 L 395.714844 133.203125 L 396.167969 133.03125 L 396.625 132.957031 L 397.078125 133 L 397.535156 133.171875 L 397.988281 133.480469 L 398.445312 133.925781 L 398.898438 134.503906 L 399.355469 135.207031 L 399.808594 136.027344 L 400.265625 136.953125 L 400.71875 137.964844 L 401.175781 139.027344 L 401.628906 140.101562 "/>
<path fill="none" stroke-width="0.320094" stroke-linecap="butt" stroke-linejoin="round" stroke="rgb(27.45098%, 50.980392%, 70.588235%)" stroke-opacity="1" stroke-miterlimit="10" d="M 64.871094 127.367188 L 65.324219 88.773438 L 65.78125 142.210938 L 66.234375 148.148438 L 66.691406 128.851562 L 67.144531 142.210938 L 67.601562 146.664062 L 68.054688 154.089844 L 68.511719 148.148438 L 68.964844 143.695312 L 69.421875 142.210938 L 69.875 131.820312 L 70.332031 157.058594 L 70.785156 157.058594 L 71.242188 168.933594 L 71.695312 164.480469 L 72.152344 168.933594 L 72.605469 164.480469 L 73.0625 148.148438 L 73.515625 142.210938 L 73.972656 152.605469 L 74.425781 148.148438 "/>
<path fill="none" stroke-width="0.320094" stroke-linecap="butt" stroke-linejoin="round" stroke="rgb(27.45098%, 50.980392%, 70.588235%)" stroke-opacity="1" stroke-miterlimit="10" d="M 75.335938 164.480469 L 75.792969 174.871094 L 76.246094 170.417969 L 76.703125 170.417969 L 77.15625 165.964844 L 77.613281 149.632812 L 78.066406 148.148438 L 78.523438 130.335938 L 78.976562 118.460938 L 79.433594 125.882812 L 79.886719 146.664062 L 80.34375 168.933594 L 80.796875 157.058594 L 81.253906 148.148438 L 81.707031 121.429688 L 82.164062 131.820312 L 82.617188 128.851562 L 83.074219 136.273438 L 83.527344 130.335938 L 83.984375 140.726562 L 84.4375 131.820312 L 84.894531 148.148438 L 85.347656 133.304688 "/>
<path fill="none" stroke-width="0.320094" stroke-linecap="butt" stroke-linejoin="round" stroke="rgb(27.45098%, 50.980392%, 70.588235%)" stroke-opacity="1" stroke-miterlimit="10" d="M 86.257812 162.996094 L 86.714844 171.902344 L 87.167969 176.355469 L 87.625 180.808594 L 88.078125 171.902344 L 88.535156 167.449219 L 88.988281 152.605469 L 89.445312 136.273438 L 89.898438 139.242188 L 90.355469 146.664062 L 90.808594 133.304688 L 91.265625 128.851562 L 91.71875 127.367188 L 92.175781 121.429688 L 92.628906 139.242188 L 93.085938 152.605469 L 93.539062 148.148438 L 93.996094 145.179688 L 94.449219 140.726562 L 94.90625 157.058594 L 95.359375 136.273438 L 95.816406 139.242188 L 96.269531 140.726562 "/>
<path fill="none" stroke-width="0.320094" stroke-linecap="butt" stroke-linejoin="round" stroke="rgb(27.45098%, 50.980392%, 70.588235%)" stroke-opacity="1" stroke-miterlimit="10" d="M 97.179688 161.511719 L 97.636719 160.027344 L 98.089844 151.117188 L 98.546875 161.511719 L 99 154.089844 L 99.457031 143.695312 L 99.910156 171.902344 L 100.367188 161.511719 L 100.820312 137.757812 L 101.277344 142.210938 L 101.730469 157.058594 L 102.1875 154.089844 L 102.640625 146.664062 L 103.097656 151.117188 L 103.550781 137.757812 L 104.007812 155.574219 L 104.460938 143.695312 L 104.917969 151.117188 L 105.371094 160.027344 L 105.828125 146.664062 L 106.28125 151.117188 L 106.738281 160.027344 L 107.191406 149.632812 "/>
<path fill="none" stroke-width="0.320094" stroke-linecap="butt" stroke-linejoin="round" stroke="rgb(27.45098%, 50.980392%, 70.588235%)" stroke-opacity="1" stroke-miterlimit="10" d="M 108.101562 168.933594 L 108.558594 168.933594 L 109.011719 162.996094 L 109.46875 151.117188 L 109.921875 124.398438 L 110.378906 112.523438 L 110.832031 112.523438 L 111.289062 140.726562 L 111.742188 124.398438 L 112.199219 100.648438 L 112.652344 121.429688 L 113.109375 124.398438 L 113.5625 134.789062 L 114.019531 111.039062 L 114.472656 106.585938 L 114.929688 128.851562 L 115.382812 137.757812 L 115.839844 155.574219 L 116.292969 152.605469 L 116.75 148.148438 L 117.203125 146.664062 L 117.660156 148.148438 L 118.113281 151.117188 "/>
<path fill="none" stroke-width="0.320094" stroke-linecap="butt" stroke-linejoin="round" stroke="rgb(27.45098%, 50.980392%, 70.588235%)" stroke-opacity="1" stroke-miterlimit="10" d="M 119.023438 146.664062 L 119.480469 154.089844 L 119.933594 158.542969 L 120.390625 151.117188 L 120.84375 127.367188 L 121.300781 137.757812 L 121.753906 108.070312 L 122.210938 116.976562 L 122.664062 116.976562 L 123.121094 134.789062 L 123.574219 93.226562 L 124.03125 125.882812 L 124.484375 140.726562 L 124.941406 133.304688 L 125.394531 139.242188 L 125.851562 148.148438 L 126.304688 124.398438 L 126.761719 157.058594 L 127.214844 145.179688 L 127.671875 145.179688 L 128.125 152.605469 L 128.582031 149.632812 L 129.035156 152.605469 L 129.492188 164.480469 L 129.945312 157.058594 L 130.402344 165.964844 L 130.855469 158.542969 L 131.3125 143.695312 L 131.765625 146.664062 L 132.222656 143.695312 L 132.675781 119.945312 L 133.132812 121.429688 L 133.585938 112.523438 L 134.042969 140.726562 L 134.496094 136.273438 L 134.953125 142.210938 L 135.40625 124.398438 L 135.863281 125.882812 L 136.316406 137.757812 L 136.773438 116.976562 L 137.226562 136.273438 L 137.683594 114.007812 L 138.136719 128.851562 L 138.59375 137.757812 L 139.046875 140.726562 L 139.503906 142.210938 L 139.957031 149.632812 L 140.414062 155.574219 L 140.867188 155.574219 L 141.324219 164.480469 L 141.777344 158.542969 L 142.234375 148.148438 L 142.6875 146.664062 L 143.144531 121.429688 L 143.597656 124.398438 L 144.054688 128.851562 L 144.507812 122.914062 L 144.964844 134.789062 L 145.417969 131.820312 L 145.875 127.367188 L 146.328125 114.007812 L 146.785156 127.367188 L 147.238281 137.757812 L 147.695312 148.148438 L 148.148438 140.726562 L 148.605469 158.542969 L 149.058594 131.820312 L 149.515625 143.695312 L 149.96875 148.148438 L 150.425781 154.089844 L 150.878906 161.511719 L 151.335938 170.417969 L 151.789062 168.933594 L 152.246094 174.871094 L 152.699219 176.355469 L 153.15625 171.902344 L 153.609375 155.574219 L 154.066406 143.695312 L 154.519531 142.210938 L 154.976562 152.605469 L 155.429688 136.273438 L 155.886719 134.789062 "/>
<path fill="none" stroke-width="0.320094" stroke-linecap="butt" stroke-linejoin="round" stroke="rgb(27.45098%, 50.980392%, 70.588235%)" stroke-opacity="1" stroke-miterlimit="10" d="M 159.070312 139.242188 L 159.527344 131.820312 L 159.980469 112.523438 L 160.4375 136.273438 L 160.890625 118.460938 L 161.347656 139.242188 L 161.800781 128.851562 L 162.257812 133.304688 L 162.710938 128.851562 L 163.167969 140.726562 L 163.621094 152.605469 L 164.078125 157.058594 L 164.53125 148.148438 L 164.988281 128.851562 L 165.441406 134.789062 L 165.898438 142.210938 L 166.351562 116.976562 L 166.808594 118.460938 L 167.261719 145.179688 L 167.71875 136.273438 L 168.171875 125.882812 L 168.628906 134.789062 L 169.082031 143.695312 L 169.539062 128.851562 L 169.992188 145.179688 L 170.449219 145.179688 L 170.902344 143.695312 L 171.359375 137.757812 L 171.8125 139.242188 L 172.269531 152.605469 L 172.722656 134.789062 L 173.179688 142.210938 L 173.632812 155.574219 L 174.089844 148.148438 L 174.542969 154.089844 L 175 148.148438 L 175.453125 151.117188 L 176.363281 151.117188 L 176.820312 139.242188 L 177.273438 143.695312 L 177.730469 148.148438 L 178.183594 143.695312 L 178.640625 146.664062 L 179.09375 151.117188 L 180.003906 151.117188 L 180.460938 136.273438 L 180.914062 122.914062 L 181.371094 122.914062 L 181.824219 148.148438 L 182.28125 137.757812 L 182.734375 151.117188 L 183.191406 154.089844 L 183.644531 143.695312 L 184.101562 160.027344 L 184.554688 161.511719 L 185.011719 168.933594 L 185.464844 165.964844 L 185.921875 164.480469 L 186.375 137.757812 L 186.832031 134.789062 L 187.285156 133.304688 L 187.742188 125.882812 L 188.195312 127.367188 L 188.652344 139.242188 L 189.105469 136.273438 L 189.5625 133.304688 L 190.015625 91.742188 L 190.472656 122.914062 L 190.925781 134.789062 L 191.382812 134.789062 L 191.835938 142.210938 L 192.292969 133.304688 L 192.746094 139.242188 L 193.203125 152.605469 L 193.65625 148.148438 L 194.113281 152.605469 L 194.566406 160.027344 L 195.023438 158.542969 L 195.476562 158.542969 L 195.933594 161.511719 L 196.386719 165.964844 L 196.84375 162.996094 L 197.296875 145.179688 L 197.753906 151.117188 L 198.207031 154.089844 L 198.664062 148.148438 L 199.117188 142.210938 L 199.574219 136.273438 L 200.027344 121.429688 L 200.484375 139.242188 L 200.9375 134.789062 L 201.394531 140.726562 L 201.847656 124.398438 L 202.304688 143.695312 L 202.757812 133.304688 L 203.214844 154.089844 L 203.667969 158.542969 L 204.125 167.449219 L 204.578125 164.480469 L 205.035156 164.480469 L 205.488281 167.449219 L 205.945312 171.902344 L 206.398438 131.820312 L 206.855469 158.542969 L 207.308594 164.480469 L 207.765625 167.449219 L 208.21875 171.902344 L 208.675781 134.789062 L 209.128906 122.914062 L 209.585938 146.664062 L 210.039062 111.039062 L 210.496094 130.335938 "/>
<path fill="none" stroke-width="0.320094" stroke-linecap="butt" stroke-linejoin="round" stroke="rgb(27.45098%, 50.980392%, 70.588235%)" stroke-opacity="1" stroke-miterlimit="10" d="M 211.40625 109.554688 L 211.859375 75.410156 L 212.316406 124.398438 L 212.769531 82.835938 L 213.226562 106.585938 L 213.679688 131.820312 L 214.136719 136.273438 L 214.589844 105.101562 L 215.046875 125.882812 L 215.5 124.398438 L 215.957031 125.882812 L 216.410156 125.882812 L 216.867188 149.632812 L 217.320312 170.417969 L 217.777344 174.871094 L 218.230469 179.324219 L 218.6875 165.964844 L 219.140625 128.851562 L 219.597656 128.851562 L 220.050781 99.164062 L 220.507812 124.398438 L 220.960938 119.945312 L 221.417969 106.585938 L 221.871094 60.566406 L 222.328125 99.164062 L 222.78125 81.351562 L 223.238281 45.722656 L 223.691406 69.472656 L 224.148438 94.710938 L 224.601562 102.132812 L 225.058594 133.304688 L 225.511719 87.289062 L 225.96875 130.335938 L 226.421875 111.039062 L 226.878906 121.429688 L 227.332031 137.757812 L 227.789062 139.242188 L 228.242188 143.695312 L 228.699219 152.605469 L 229.152344 148.148438 L 229.609375 142.210938 L 230.0625 96.195312 L 230.519531 93.226562 L 230.972656 111.039062 L 231.429688 119.945312 L 231.882812 130.335938 L 232.339844 154.089844 L 232.792969 154.089844 L 233.25 155.574219 L 233.703125 140.726562 L 234.160156 143.695312 L 234.613281 145.179688 L 235.070312 162.996094 L 235.523438 157.058594 L 235.980469 152.605469 L 236.433594 152.605469 L 236.890625 136.273438 L 237.34375 124.398438 L 237.800781 127.367188 L 238.253906 127.367188 L 238.710938 136.273438 L 239.164062 119.945312 L 239.621094 151.117188 L 240.074219 143.695312 L 240.53125 164.480469 L 240.984375 145.179688 L 241.441406 143.695312 L 241.894531 121.429688 L 242.351562 146.664062 L 242.804688 136.273438 L 243.261719 140.726562 L 243.714844 121.429688 L 244.171875 114.007812 L 244.625 131.820312 L 245.082031 109.554688 L 245.535156 114.007812 L 245.992188 97.679688 L 246.445312 133.304688 L 246.902344 137.757812 L 247.355469 151.117188 L 247.8125 114.007812 L 248.265625 151.117188 L 248.722656 137.757812 L 249.175781 152.605469 L 249.632812 161.511719 L 250.085938 157.058594 L 250.542969 160.027344 L 250.996094 174.871094 L 251.453125 179.324219 L 251.90625 173.386719 L 252.363281 165.964844 L 252.816406 162.996094 L 253.273438 165.964844 L 253.726562 137.757812 L 254.183594 122.914062 L 254.636719 142.210938 L 255.09375 124.398438 L 255.546875 136.273438 L 256.003906 114.007812 L 256.457031 137.757812 L 256.914062 155.574219 L 257.367188 131.820312 L 257.824219 133.304688 L 258.277344 152.605469 L 258.734375 142.210938 L 259.1875 128.851562 L 259.644531 136.273438 L 260.097656 165.964844 L 260.554688 180.808594 L 261.007812 185.261719 L 261.464844 188.230469 L 261.917969 191.199219 L 262.375 185.261719 L 262.828125 176.355469 L 263.285156 161.511719 L 263.738281 161.511719 L 264.195312 155.574219 L 264.648438 157.058594 L 265.105469 149.632812 L 265.558594 164.480469 L 266.015625 160.027344 L 266.46875 158.542969 L 266.925781 151.117188 L 267.378906 154.089844 L 267.835938 152.605469 L 268.289062 149.632812 L 268.746094 154.089844 L 269.199219 157.058594 L 269.65625 161.511719 L 270.109375 170.417969 L 270.566406 171.902344 L 271.019531 177.839844 L 271.476562 182.292969 L 271.929688 180.808594 L 272.386719 182.292969 L 272.839844 183.777344 L 273.296875 173.386719 L 273.75 162.996094 L 274.207031 152.605469 L 274.660156 139.242188 L 275.117188 143.695312 L 275.570312 142.210938 L 276.027344 137.757812 L 276.480469 143.695312 L 276.9375 97.679688 L 277.390625 139.242188 L 277.847656 125.882812 L 278.300781 137.757812 L 278.757812 128.851562 L 279.210938 127.367188 L 279.667969 133.304688 L 280.121094 136.273438 L 280.578125 134.789062 L 281.03125 139.242188 L 281.488281 139.242188 L 281.941406 128.851562 L 282.398438 136.273438 L 282.851562 105.101562 L 283.308594 97.679688 L 283.761719 99.164062 L 284.21875 109.554688 L 284.671875 119.945312 L 285.128906 93.226562 L 285.582031 105.101562 L 286.039062 105.101562 L 286.492188 84.320312 L 286.949219 76.894531 L 287.402344 96.195312 L 287.859375 81.351562 L 288.3125 87.289062 L 288.769531 84.320312 L 289.222656 103.617188 L 289.679688 103.617188 L 290.132812 119.945312 L 290.589844 119.945312 L 291.046875 109.554688 L 291.5 128.851562 L 291.957031 111.039062 L 292.410156 136.273438 L 292.867188 130.335938 L 293.320312 155.574219 L 293.777344 127.367188 L 294.230469 142.210938 L 294.6875 148.148438 L 295.140625 148.148438 L 295.597656 124.398438 L 296.050781 90.257812 L 296.507812 102.132812 L 296.960938 122.914062 L 297.417969 114.007812 L 297.871094 115.492188 L 298.328125 122.914062 L 298.78125 116.976562 L 299.238281 115.492188 L 299.691406 102.132812 L 300.148438 60.566406 L 300.601562 81.351562 L 301.058594 105.101562 L 301.511719 137.757812 L 301.96875 125.882812 L 302.421875 124.398438 L 302.878906 143.695312 L 303.332031 145.179688 L 303.789062 160.027344 L 304.242188 158.542969 L 304.699219 149.632812 L 305.152344 164.480469 L 305.609375 154.089844 L 306.0625 152.605469 L 306.519531 127.367188 L 306.972656 140.726562 L 307.429688 139.242188 L 307.882812 133.304688 L 308.339844 133.304688 L 308.792969 143.695312 L 309.25 151.117188 L 309.703125 128.851562 L 310.160156 137.757812 L 310.613281 145.179688 L 311.070312 151.117188 L 311.523438 143.695312 L 311.980469 165.964844 L 312.433594 142.210938 L 312.890625 162.996094 L 313.34375 165.964844 L 313.800781 167.449219 L 314.253906 167.449219 L 314.710938 168.933594 L 315.164062 167.449219 L 315.621094 160.027344 L 316.074219 170.417969 L 316.53125 173.386719 L 316.984375 182.292969 L 317.441406 167.449219 L 317.894531 154.089844 L 318.351562 157.058594 L 318.804688 165.964844 L 319.261719 168.933594 L 319.714844 171.902344 L 320.171875 170.417969 L 320.625 173.386719 L 321.082031 173.386719 L 321.535156 167.449219 L 321.992188 160.027344 L 322.445312 157.058594 L 322.902344 158.542969 L 323.355469 161.511719 L 323.8125 165.964844 L 324.265625 167.449219 L 324.722656 170.417969 L 325.175781 174.871094 L 325.632812 177.839844 L 326.085938 177.839844 L 326.542969 174.871094 L 326.996094 182.292969 L 327.453125 182.292969 L 327.90625 188.230469 L 328.363281 180.808594 L 328.816406 176.355469 L 329.273438 180.808594 L 329.726562 177.839844 L 330.183594 173.386719 L 330.636719 168.933594 L 331.09375 170.417969 L 331.546875 165.964844 L 332.003906 171.902344 L 332.457031 170.417969 L 332.914062 170.417969 L 333.367188 161.511719 L 333.824219 155.574219 L 334.277344 174.871094 L 334.734375 170.417969 L 335.1875 177.839844 L 335.644531 176.355469 L 336.097656 174.871094 L 336.554688 165.964844 L 337.007812 177.839844 L 337.464844 180.808594 L 337.917969 185.261719 L 338.375 182.292969 L 338.828125 171.902344 L 339.285156 151.117188 L 339.738281 151.117188 L 340.195312 143.695312 L 340.648438 154.089844 L 341.105469 149.632812 L 341.558594 162.996094 L 342.015625 148.148438 L 342.46875 154.089844 L 342.925781 143.695312 L 343.378906 137.757812 L 343.835938 127.367188 L 344.289062 146.664062 L 344.746094 137.757812 L 345.199219 140.726562 L 345.65625 148.148438 L 346.109375 146.664062 L 346.566406 149.632812 L 347.019531 146.664062 L 347.476562 146.664062 L 347.929688 152.605469 L 348.386719 155.574219 L 348.839844 162.996094 L 349.296875 162.996094 L 349.75 158.542969 L 350.207031 152.605469 L 350.660156 137.757812 L 351.117188 137.757812 L 351.570312 139.242188 L 352.027344 134.789062 L 352.480469 145.179688 L 352.9375 131.820312 L 353.390625 151.117188 L 353.847656 140.726562 L 354.300781 121.429688 L 354.757812 121.429688 L 355.210938 139.242188 L 355.667969 131.820312 L 356.121094 128.851562 L 356.578125 134.789062 L 357.03125 139.242188 L 357.488281 137.757812 L 357.941406 142.210938 L 358.398438 154.089844 L 358.851562 160.027344 L 359.308594 155.574219 L 359.761719 165.964844 L 360.21875 168.933594 L 360.671875 151.117188 L 361.128906 143.695312 L 361.582031 137.757812 L 362.039062 139.242188 L 362.492188 143.695312 L 362.949219 137.757812 "/>
<path fill="none" stroke-width="0.320094" stroke-linecap="butt" stroke-linejoin="round" stroke="rgb(27.45098%, 50.980392%, 70.588235%)" stroke-opacity="1" stroke-miterlimit="10" d="M 363.859375 136.273438 L 364.3125 124.398438 L 364.769531 124.398438 L 365.222656 136.273438 L 365.679688 130.335938 L 366.132812 124.398438 L 366.589844 125.882812 L 367.042969 122.914062 L 367.5 131.820312 L 367.953125 134.789062 L 368.410156 139.242188 L 368.863281 140.726562 L 369.320312 142.210938 L 369.773438 149.632812 L 370.230469 148.148438 L 370.683594 155.574219 L 371.140625 154.089844 L 371.59375 149.632812 L 372.050781 148.148438 L 372.503906 130.335938 L 372.960938 127.367188 L 373.414062 130.335938 L 373.871094 125.882812 L 374.324219 125.882812 L 374.78125 116.976562 L 375.234375 133.304688 L 375.691406 130.335938 L 376.144531 151.117188 L 376.601562 130.335938 L 377.054688 133.304688 L 377.511719 128.851562 L 377.964844 140.726562 L 378.421875 133.304688 L 378.875 140.726562 L 379.332031 139.242188 L 379.785156 143.695312 L 380.242188 139.242188 L 380.695312 148.148438 L 381.152344 137.757812 L 381.605469 152.605469 L 382.0625 149.632812 L 382.515625 149.632812 L 382.972656 136.273438 L 383.425781 112.523438 L 383.882812 114.007812 L 384.335938 100.648438 L 384.792969 97.679688 L 385.246094 111.039062 L 385.703125 116.976562 L 386.15625 128.851562 L 386.613281 124.398438 L 387.066406 134.789062 L 387.523438 118.460938 L 387.976562 133.304688 L 388.433594 131.820312 L 388.886719 139.242188 L 389.34375 142.210938 L 389.796875 137.757812 L 390.253906 134.789062 L 390.707031 131.820312 L 391.164062 136.273438 L 391.617188 142.210938 L 392.074219 139.242188 L 392.527344 146.664062 L 392.984375 148.148438 L 393.4375 149.632812 L 393.894531 154.089844 L 394.347656 146.664062 L 394.804688 149.632812 L 395.257812 116.976562 L 395.714844 115.492188 L 396.167969 134.789062 L 396.625 99.164062 L 397.078125 131.820312 L 397.535156 128.851562 L 397.988281 105.101562 L 398.445312 127.367188 L 398.898438 162.996094 L 399.355469 96.195312 L 399.808594 125.882812 L 400.265625 114.007812 L 400.71875 137.757812 L 401.175781 157.058594 L 401.628906 122.914062 "/>
<g clip-path="url(#clip-18)">
<path fill="none" stroke-width="1.066978" stroke-linecap="round" stroke-linejoin="round" stroke="rgb(20%, 20%, 20%)" stroke-opacity="1" stroke-miterlimit="10" d="M 55.050781 205.746094 L 410.082031 205.746094 L 410.082031 31.175781 L 55.050781 31.175781 Z M 55.050781 205.746094 "/>
</g>
<g fill="rgb(30.196078%, 30.196078%, 30.196078%)" fill-opacity="1">
<use xlink:href="#glyph-0-0" x="45.226562" y="208.210938"/>
</g>
<g fill="rgb(30.196078%, 30.196078%, 30.196078%)" fill-opacity="1">
<use xlink:href="#glyph-0-1" x="40.332031" y="163.675781"/>
<use xlink:href="#glyph-0-0" x="45.226172" y="163.675781"/>
</g>
<g fill="rgb(30.196078%, 30.196078%, 30.196078%)" fill-opacity="1">
<use xlink:href="#glyph-0-2" x="40.332031" y="119.140625"/>
<use xlink:href="#glyph-0-0" x="45.226172" y="119.140625"/>
</g>
<g fill="rgb(30.196078%, 30.196078%, 30.196078%)" fill-opacity="1">
<use xlink:href="#glyph-0-3" x="40.332031" y="74.609375"/>
<use xlink:href="#glyph-0-0" x="45.226172" y="74.609375"/>
</g>
<path fill="none" stroke-width="1.066978" stroke-linecap="butt" stroke-linejoin="round" stroke="rgb(20%, 20%, 20%)" stroke-opacity="1" stroke-miterlimit="10" d="M 52.3125 204.558594 L 55.050781 204.558594 "/>
<path fill="none" stroke-width="1.066978" stroke-linecap="butt" stroke-linejoin="round" stroke="rgb(20%, 20%, 20%)" stroke-opacity="1" stroke-miterlimit="10" d="M 52.3125 160.027344 L 55.050781 160.027344 "/>
<path fill="none" stroke-width="1.066978" stroke-linecap="butt" stroke-linejoin="round" stroke="rgb(20%, 20%, 20%)" stroke-opacity="1" stroke-miterlimit="10" d="M 52.3125 115.492188 L 55.050781 115.492188 "/>
<path fill="none" stroke-width="1.066978" stroke-linecap="butt" stroke-linejoin="round" stroke="rgb(20%, 20%, 20%)" stroke-opacity="1" stroke-miterlimit="10" d="M 52.3125 70.957031 L 55.050781 70.957031 "/>
<path fill="none" stroke-width="1.066978" stroke-linecap="butt" stroke-linejoin="round" stroke="rgb(20%, 20%, 20%)" stroke-opacity="1" stroke-miterlimit="10" d="M 107.191406 208.488281 L 107.191406 205.746094 "/>
<path fill="none" stroke-width="1.066978" stroke-linecap="butt" stroke-linejoin="round" stroke="rgb(20%, 20%, 20%)" stroke-opacity="1" stroke-miterlimit="10" d="M 183.644531 208.488281 L 183.644531 205.746094 "/>
<path fill="none" stroke-width="1.066978" stroke-linecap="butt" stroke-linejoin="round" stroke="rgb(20%, 20%, 20%)" stroke-opacity="1" stroke-miterlimit="10" d="M 260.097656 208.488281 L 260.097656 205.746094 "/>
<path fill="none" stroke-width="1.066978" stroke-linecap="butt" stroke-linejoin="round" stroke="rgb(20%, 20%, 20%)" stroke-opacity="1" stroke-miterlimit="10" d="M 336.554688 208.488281 L 336.554688 205.746094 "/>
<g fill="rgb(30.196078%, 30.196078%, 30.196078%)" fill-opacity="1">
<use xlink:href="#glyph-0-4" x="93.980469" y="217.976562"/>
<use xlink:href="#glyph-0-5" x="98.380469" y="217.976562"/>
<use xlink:href="#glyph-0-6" x="103.274609" y="217.976562"/>
<use xlink:href="#glyph-0-7" x="108.16875" y="217.976562"/>
<use xlink:href="#glyph-0-0" x="110.613672" y="217.976562"/>
<use xlink:href="#glyph-0-8" x="115.507813" y="217.976562"/>
</g>
<g fill="rgb(30.196078%, 30.196078%, 30.196078%)" fill-opacity="1">
<use xlink:href="#glyph-0-4" x="170.433594" y="217.976562"/>
<use xlink:href="#glyph-0-5" x="174.833594" y="217.976562"/>
<use xlink:href="#glyph-0-6" x="179.727734" y="217.976562"/>
<use xlink:href="#glyph-0-7" x="184.621875" y="217.976562"/>
<use xlink:href="#glyph-0-9" x="187.066797" y="217.976562"/>
<use xlink:href="#glyph-0-10" x="191.960938" y="217.976562"/>
</g>
<g fill="rgb(30.196078%, 30.196078%, 30.196078%)" fill-opacity="1">
<use xlink:href="#glyph-0-4" x="246.886719" y="217.976562"/>
<use xlink:href="#glyph-0-5" x="251.286719" y="217.976562"/>
<use xlink:href="#glyph-0-6" x="256.180859" y="217.976562"/>
<use xlink:href="#glyph-0-7" x="261.075" y="217.976562"/>
<use xlink:href="#glyph-0-9" x="263.519922" y="217.976562"/>
<use xlink:href="#glyph-0-3" x="268.414062" y="217.976562"/>
</g>
<g fill="rgb(30.196078%, 30.196078%, 30.196078%)" fill-opacity="1">
<use xlink:href="#glyph-0-4" x="323.34375" y="217.976562"/>
<use xlink:href="#glyph-0-5" x="327.74375" y="217.976562"/>
<use xlink:href="#glyph-0-6" x="332.637891" y="217.976562"/>
<use xlink:href="#glyph-0-7" x="337.532031" y="217.976562"/>
<use xlink:href="#glyph-0-10" x="339.976953" y="217.976562"/>
<use xlink:href="#glyph-0-2" x="344.871094" y="217.976562"/>
</g>
<g fill="rgb(0%, 0%, 0%)" fill-opacity="1">
<use xlink:href="#glyph-1-0" x="30.929688" y="149.742188"/>
<use xlink:href="#glyph-1-1" x="30.929688" y="141.79834"/>
</g>
<g fill="rgb(0%, 0%, 0%)" fill-opacity="1">
<use xlink:href="#glyph-2-0" x="33.277344" y="133.242188"/>
</g>
<g fill="rgb(0%, 0%, 0%)" fill-opacity="1">
<use xlink:href="#glyph-1-2" x="30.929688" y="128.957031"/>
<use xlink:href="#glyph-1-3" x="30.929688" y="125.900879"/>
<use xlink:href="#glyph-1-4" x="30.929688" y="122.237793"/>
<use xlink:href="#glyph-1-5" x="30.929688" y="115.899902"/>
<use xlink:href="#glyph-1-6" x="30.929688" y="109.782227"/>
<use xlink:href="#glyph-1-7" x="30.929688" y="106.726074"/>
<use xlink:href="#glyph-1-8" x="30.929688" y="97.562988"/>
<use xlink:href="#glyph-1-9" x="30.929688" y="93.899902"/>
<use xlink:href="#glyph-1-2" x="30.929688" y="90.236816"/>
</g>
<path fill-rule="nonzero" fill="rgb(100%, 100%, 100%)" fill-opacity="1" d="M 147.796875 266.082031 L 317.339844 266.082031 L 317.339844 237.84375 L 147.796875 237.84375 Z M 147.796875 266.082031 "/>
<path fill-rule="nonzero" fill="rgb(100%, 100%, 100%)" fill-opacity="1" d="M 153.273438 260.601562 L 170.554688 260.601562 L 170.554688 243.320312 L 153.273438 243.320312 Z M 153.273438 260.601562 "/>
<path fill="none" stroke-width="2.133957" stroke-linecap="butt" stroke-linejoin="round" stroke="rgb(100%, 38.823529%, 27.843137%)" stroke-opacity="1" stroke-miterlimit="10" d="M 155.003906 251.960938 L 168.828125 251.960938 "/>
<path fill-rule="nonzero" fill="rgb(100%, 100%, 100%)" fill-opacity="1" d="M 252.425781 260.601562 L 269.707031 260.601562 L 269.707031 243.320312 L 252.425781 243.320312 Z M 252.425781 260.601562 "/>
<path fill="none" stroke-width="0.320094" stroke-linecap="butt" stroke-linejoin="round" stroke="rgb(27.45098%, 50.980392%, 70.588235%)" stroke-opacity="1" stroke-miterlimit="10" d="M 254.152344 251.960938 L 267.976562 251.960938 "/>
<g fill="rgb(0%, 0%, 0%)" fill-opacity="1">
<use xlink:href="#glyph-0-11" x="176.035156" y="255.0625"/>
<use xlink:href="#glyph-0-12" x="184.341016" y="255.0625"/>
<use xlink:href="#glyph-0-13" x="189.235156" y="255.0625"/>
<use xlink:href="#glyph-0-14" x="191.190234" y="255.0625"/>
<use xlink:href="#glyph-0-14" x="193.635156" y="255.0625"/>
<use xlink:href="#glyph-0-5" x="196.080078" y="255.0625"/>
<use xlink:href="#glyph-0-15" x="200.974219" y="255.0625"/>
<use xlink:href="#glyph-0-16" x="205.374219" y="255.0625"/>
<use xlink:href="#glyph-0-17" x="210.268359" y="255.0625"/>
<use xlink:href="#glyph-0-7" x="213.198828" y="255.0625"/>
<use xlink:href="#glyph-0-18" x="215.64375" y="255.0625"/>
<use xlink:href="#glyph-0-19" x="220.04375" y="255.0625"/>
<use xlink:href="#glyph-0-20" x="227.374219" y="255.0625"/>
<use xlink:href="#glyph-0-20" x="232.268359" y="255.0625"/>
<use xlink:href="#glyph-0-14" x="237.1625" y="255.0625"/>
<use xlink:href="#glyph-0-12" x="239.607422" y="255.0625"/>
<use xlink:href="#glyph-0-7" x="244.501563" y="255.0625"/>
</g>
<g fill="rgb(0%, 0%, 0%)" fill-opacity="1">
<use xlink:href="#glyph-0-21" x="275.183594" y="254.195312"/>
<use xlink:href="#glyph-0-5" x="281.538672" y="254.195312"/>
<use xlink:href="#glyph-0-22" x="286.432812" y="254.195312"/>
<use xlink:href="#glyph-0-7" x="292.787891" y="254.195312"/>
<use xlink:href="#glyph-0-23" x="295.232812" y="254.195312"/>
<use xlink:href="#glyph-0-24" x="301.587891" y="254.195312"/>
</g>
<g fill="rgb(0%, 0%, 0%)" fill-opacity="1">
<use xlink:href="#glyph-3-0" x="308.433594" y="256.140625"/>
</g>
</svg>
